<svg width="19" height="18" viewBox="0 0 19 18" fill="none" xmlns="http://www.w3.org/2000/svg">
<path d="M6.17603 8.625C5.73281 8.625 5.29394 8.5377 4.88447 8.36809C4.47499 8.19848 4.10294 7.94988 3.78954 7.63649C3.47614 7.32309 3.22754 6.95103 3.05793 6.54156C2.88832 6.13208 2.80103 5.69321 2.80103 5.25C2.80103 4.80679 2.88832 4.36792 3.05793 3.95844C3.22754 3.54897 3.47614 3.17691 3.78954 2.86351C4.10294 2.55012 4.47499 2.30152 4.88447 2.13191C5.29394 1.9623 5.73281 1.875 6.17603 1.875C7.07113 1.875 7.92958 2.23058 8.56251 2.86351C9.19545 3.49645 9.55103 4.35489 9.55103 5.25C9.55103 6.14511 9.19545 7.00355 8.56251 7.63649C7.92958 8.26942 7.07113 8.625 6.17603 8.625ZM6.17603 16.125C5.28092 16.125 4.42248 15.7694 3.78954 15.1365C3.1566 14.5035 2.80103 13.6451 2.80103 12.75C2.80103 11.8549 3.1566 10.9965 3.78954 10.3635C4.42248 9.73058 5.28092 9.375 6.17603 9.375C7.07113 9.375 7.92958 9.73058 8.56251 10.3635C9.19545 10.9965 9.55103 11.8549 9.55103 12.75C9.55103 13.6451 9.19545 14.5035 8.56251 15.1365C7.92958 15.7694 7.07113 16.125 6.17603 16.125ZM13.676 8.625C13.2328 8.625 12.7939 8.5377 12.3845 8.36809C11.975 8.19848 11.6029 7.94988 11.2895 7.63649C10.9761 7.32309 10.7275 6.95103 10.5579 6.54156C10.3883 6.13208 10.301 5.69321 10.301 5.25C10.301 4.80679 10.3883 4.36792 10.5579 3.95844C10.7275 3.54897 10.9761 3.17691 11.2895 2.86351C11.6029 2.55012 11.975 2.30152 12.3845 2.13191C12.7939 1.9623 13.2328 1.875 13.676 1.875C14.5711 1.875 15.4296 2.23058 16.0625 2.86351C16.6954 3.49645 17.051 4.35489 17.051 5.25C17.051 6.14511 16.6954 7.00355 16.0625 7.63649C15.4296 8.26942 14.5711 8.625 13.676 8.625ZM13.676 16.125C12.7809 16.125 11.9225 15.7694 11.2895 15.1365C10.6566 14.5035 10.301 13.6451 10.301 12.75C10.301 11.8549 10.6566 10.9965 11.2895 10.3635C11.9225 9.73058 12.7809 9.375 13.676 9.375C14.5711 9.375 15.4296 9.73058 16.0625 10.3635C16.6954 10.9965 17.051 11.8549 17.051 12.75C17.051 13.6451 16.6954 14.5035 16.0625 15.1365C15.4296 15.7694 14.5711 16.125 13.676 16.125Z" fill="white"/>
</svg>
