<svg width="232" height="109" viewBox="0 0 232 109" fill="none" xmlns="http://www.w3.org/2000/svg">
<g opacity="0.2">
<mask id="path-1-inside-1_2959_994" fill="white">
<path d="M0.687023 31.9254C19.637 16.6814 43.7808 6.3002 70.0652 2.09441C96.3497 -2.11138 123.594 0.0471757 148.354 8.29712C173.113 16.5471 194.275 30.5179 209.164 48.4428C224.053 66.3678 232 87.4418 232 109L96.5 109L0.687023 31.9254Z"/>
</mask>
<path d="M0.687023 31.9254C19.637 16.6814 43.7808 6.3002 70.0652 2.09441C96.3497 -2.11138 123.594 0.0471757 148.354 8.29712C173.113 16.5471 194.275 30.5179 209.164 48.4428C224.053 66.3678 232 87.4418 232 109L96.5 109L0.687023 31.9254Z" stroke="#2051A3" stroke-width="2" stroke-dasharray="7 7" mask="url(#path-1-inside-1_2959_994)"/>
</g>
</svg>
