<svg width="176" height="32" viewBox="0 0 176 32" fill="none" xmlns="http://www.w3.org/2000/svg">
<path d="M45.5242 9.48145H41.0363V20.6076H42.6802V17.238H45.5242C48.5161 17.238 50.3244 15.7757 50.3244 13.3597C50.3244 10.9437 48.5161 9.48145 45.5242 9.48145ZM45.4749 15.8551H42.6802V10.8643H45.4749C47.5791 10.8643 48.6805 11.7703 48.6805 13.3597C48.6805 14.9492 47.5791 15.8551 45.4749 15.8551Z" fill="#181F29"/>
<path d="M58.4585 12.1829L55.4501 18.9221L52.4089 12.1829H50.7649L54.6117 20.5911L54.3323 21.1792C53.9048 22.1487 53.4281 22.4825 52.6719 22.4825C52.0801 22.4825 51.5376 22.26 51.1102 21.8626L50.4362 23.007C50.9787 23.5156 51.8335 23.7858 52.6719 23.7858C54.0035 23.7858 55.0063 23.2295 55.7789 21.4494L60.0038 12.1829H58.4585Z" fill="#181F29"/>
<path d="M64.9939 20.7019C66.5433 20.7019 67.8317 20.0711 68.5166 18.9043L67.3261 18.1789C66.7716 18.9989 65.9235 19.3773 64.9776 19.3773C63.2815 19.3773 62.0094 18.242 62.0094 16.4286C62.0094 14.6468 63.2815 13.4957 64.9776 13.4957C65.9235 13.4957 66.7716 13.8741 67.3261 14.6941L68.5166 13.953C67.8317 12.7861 66.5433 12.1711 64.9939 12.1711C62.3356 12.1711 60.4274 13.9372 60.4274 16.4286C60.4274 18.92 62.3356 20.7019 64.9939 20.7019Z" fill="#181F29"/>
<path d="M79.4809 20.6072H81.1933L76.0071 9.56934H74.3925L69.2226 20.6072H70.9024L72.1582 17.8478H78.2251L79.4809 20.6072ZM72.729 16.5863L75.1917 11.1777L77.6543 16.5863H72.729Z" fill="#181F29"/>
<path d="M89.2632 12.25H82.9027V20.6072H84.4684V13.5745H89.2632V12.25Z" fill="#181F29"/>
<path d="M95.4488 12.1711C94.1767 12.1711 93.0677 12.6442 92.3664 13.5745V12.25H90.866V23.6663H92.4317V19.3458C93.1493 20.2446 94.2257 20.7019 95.4488 20.7019C97.9767 20.7019 99.8196 18.9989 99.8196 16.4286C99.8196 13.8741 97.9767 12.1711 95.4488 12.1711ZM95.3183 19.3773C93.6712 19.3773 92.4154 18.2104 92.4154 16.4286C92.4154 14.6625 93.6712 13.4957 95.3183 13.4957C96.9819 13.4957 98.2376 14.6625 98.2376 16.4286C98.2376 18.2104 96.9819 19.3773 95.3183 19.3773Z" fill="#181F29"/>
<path d="M105.796 20.7019C108.39 20.7019 110.281 18.92 110.281 16.4286C110.281 13.9372 108.39 12.1711 105.796 12.1711C103.203 12.1711 101.295 13.9372 101.295 16.4286C101.295 18.92 103.203 20.7019 105.796 20.7019ZM105.796 19.3773C104.133 19.3773 102.877 18.2104 102.877 16.4286C102.877 14.6468 104.133 13.4957 105.796 13.4957C107.46 13.4957 108.699 14.6468 108.699 16.4286C108.699 18.2104 107.46 19.3773 105.796 19.3773Z" fill="#181F29"/>
<path d="M124.953 20.6072L124.937 9.56934H123.6L118.903 17.3274L114.14 9.56934H112.803V20.6072H114.369V12.6126L118.495 19.2669H119.245L123.371 12.5653L123.388 20.6072H124.953Z" fill="#181F29"/>
<path d="M131.328 12.1711C129.942 12.1711 128.654 12.5496 127.757 13.2434L128.409 14.3787C129.078 13.8268 130.121 13.4799 131.149 13.4799C132.698 13.4799 133.465 14.221 133.465 15.4983V15.7979H130.986C128.409 15.7979 127.512 16.9017 127.512 18.242C127.512 19.6927 128.751 20.7019 130.708 20.7019C132.062 20.7019 133.024 20.2603 133.546 19.5035V20.6072H135.03V15.5613C135.03 13.2749 133.693 12.1711 131.328 12.1711ZM130.969 19.535C129.779 19.535 129.061 19.0146 129.061 18.1789C129.061 17.4693 129.502 16.8859 131.051 16.8859H133.465V18.0528C133.073 19.0146 132.144 19.535 130.969 19.535Z" fill="#181F29"/>
<path d="M142.432 12.1711C141.16 12.1711 140.051 12.6442 139.35 13.5745V12.25H137.85V23.6663H139.415V19.3458C140.133 20.2446 141.209 20.7019 142.432 20.7019C144.96 20.7019 146.803 18.9989 146.803 16.4286C146.803 13.8741 144.96 12.1711 142.432 12.1711ZM142.302 19.3773C140.655 19.3773 139.399 18.2104 139.399 16.4286C139.399 14.6625 140.655 13.4957 142.302 13.4957C143.965 13.4957 145.221 14.6625 145.221 16.4286C145.221 18.2104 143.965 19.3773 142.302 19.3773Z" fill="#181F29"/>
<path d="M154.69 20.6069H156.548L153.014 16.236L156.318 12.1829H154.625L151.797 15.7432H149.956V12.1829H148.378V20.6069H149.956V17.0466H151.764L154.69 20.6069Z" fill="#181F29"/>
<path d="M165.651 16.4434C165.651 13.8526 163.859 12.1042 161.344 12.1042C158.829 12.1042 156.971 13.9003 156.971 16.3958C156.971 18.9071 158.845 20.7032 161.656 20.7032C163.103 20.7032 164.303 20.2263 165.092 19.3362L164.221 18.3508C163.579 19.0343 162.725 19.368 161.705 19.368C159.979 19.368 158.746 18.3826 158.549 16.9044H165.618C165.634 16.7613 165.651 16.5706 165.651 16.4434ZM161.344 13.3917C162.873 13.3917 163.974 14.3931 164.138 15.8077H158.549C158.713 14.3772 159.831 13.3917 161.344 13.3917Z" fill="#181F29"/>
<path d="M174.076 12.1829H166.12V13.518H169.309V20.6069H170.887V13.518H174.076V12.1829Z" fill="#181F29"/>
<path fill-rule="evenodd" clip-rule="evenodd" d="M24.7567 30.4178H24.5983C24.3344 30.4178 24.0177 30.3668 23.7538 30.3157H23.701C23.5426 30.2647 23.3315 30.2647 23.1203 30.2137H23.0148C22.6981 30.1626 22.3813 30.1116 22.0646 30.0095H22.0118C21.9063 29.9585 21.7479 29.9585 21.6423 29.9074H21.5896L21.3256 29.8564V29.8054H21.2201C21.1145 29.7543 21.0089 29.7543 20.9033 29.7033H20.8506C20.5338 29.6012 20.2699 29.4992 19.9532 29.3971L19.7421 29.346V29.295H19.6365L19.4253 29.1929H19.5309L19.3726 29.1419V29.0909H19.3198L19.1086 28.9888L18.9503 28.8867H18.8975C18.7391 28.8357 18.528 28.7336 18.3696 28.6315C18.2113 28.5295 18.0529 28.4784 17.8945 28.3763V28.3253H17.8418C17.7362 28.2743 17.6306 28.1722 17.5778 28.1212C17.3139 27.917 17.05 27.7129 16.6805 27.5087C16.4165 27.3556 16.2582 26.9984 16.3638 26.8452C16.3638 26.7942 16.4165 26.7942 16.4693 26.7432C16.5221 26.7432 16.5749 26.6921 16.6277 26.6921C27.9766 26.6921 26.8681 17.0972 25.8124 12.7081C25.7596 12.5039 25.918 12.3508 26.0764 12.3508C26.1819 12.3508 26.2875 12.4019 26.3403 12.5039L31.2494 20.8229C31.4077 21.0781 31.5661 21.3333 31.6717 21.5885V21.6395L31.7772 21.7926V21.8437L31.8828 22.0478C31.9356 22.2009 32.0412 22.354 32.0939 22.5071C32.1467 22.6092 32.1467 22.6602 32.1995 22.7623V22.8133C32.2523 22.9154 32.2523 22.9665 32.3051 23.0685V23.1196C32.3579 23.2216 32.3579 23.3237 32.4107 23.4258C32.4634 23.5789 32.4634 23.732 32.5162 23.8341V23.8851C32.6746 24.6507 32.7274 25.3652 32.6218 26.0287V26.1307C32.569 26.3859 32.5162 26.6411 32.4107 26.8963V26.9473C32.4107 26.9984 32.3579 27.0494 32.3579 27.1004L32.3051 27.2025C32.2523 27.2535 32.2523 27.3046 32.1995 27.4066V27.4577C32.1467 27.5087 32.1467 27.5598 32.0939 27.6108V27.6618C32.0412 27.7129 32.0412 27.7639 31.9884 27.8149V27.866C31.8828 28.0701 31.7244 28.2743 31.5661 28.4274L31.4605 28.5295L31.4077 28.5805H31.3549C31.2494 28.6826 31.091 28.8357 30.9854 28.9377H30.9327V28.9888L30.8271 29.0909C30.7215 29.1929 30.5632 29.295 30.4576 29.3971C30.352 29.4481 30.2464 29.5502 30.1409 29.6012C30.0881 29.6523 30.0353 29.6523 29.9825 29.7033H29.9297C29.8769 29.7543 29.8242 29.7543 29.7714 29.8054H29.7186C29.6658 29.8564 29.613 29.8564 29.5602 29.9074H29.5074C29.4546 29.9585 29.4019 29.9585 29.2963 30.0095L29.1907 30.0606L29.0324 30.0095L28.8212 30.1116C28.8212 30.1116 28.135 30.3157 26.9737 30.4178H26.9209C26.6042 30.4688 26.2347 30.4688 25.8124 30.4688C25.4957 30.4178 25.1262 30.4178 24.7567 30.4178Z" fill="url(#paint0_linear_2824_41476)"/>
<path d="M14.7801 26.641C15.783 27.4066 16.9443 28.0701 18.2112 28.6825C18.2112 28.6825 18.2112 28.6825 18.264 28.6825C18.3167 28.6825 18.3167 28.7335 18.3695 28.7335C18.9502 29.0398 19.5308 29.2439 20.0587 29.4481C20.217 29.4991 20.4282 29.6012 20.5865 29.6522C20.5865 29.6522 20.5865 29.6522 20.6393 29.6522C20.7977 29.7032 20.956 29.7543 21.1144 29.8053H21.1672C21.3255 29.8564 21.4839 29.9074 21.6423 29.9584H21.695C21.8534 30.0095 22.0118 30.0605 22.1701 30.0605H22.2229C22.3813 30.1115 22.5396 30.1115 22.698 30.1626C22.8563 30.2136 23.0147 30.2136 23.173 30.2646C24.0704 30.4178 24.915 30.5198 25.6012 30.5198C25.7068 30.5198 25.8123 30.5198 25.9179 30.5198C27.7654 30.5709 28.9267 30.2136 28.9267 30.2136L29.1378 30.1626L29.2962 30.1115C29.5601 30.0095 29.7713 29.9074 30.0352 29.8053C31.1965 29.2439 32.0411 28.3763 32.4634 27.3045V27.2535C32.5161 27.1514 32.5689 27.0493 32.5689 26.9473V26.8962V26.8452V26.7942C32.5689 26.7431 32.6217 26.6921 32.6217 26.641C32.6217 26.59 32.6217 26.539 32.6745 26.4879V26.4369C32.6745 26.3859 32.6745 26.2838 32.7273 26.2327C32.7273 26.1817 32.7273 26.1307 32.7801 26.0286C32.9912 24.0892 32.1466 22.405 32.1466 22.405C31.9355 21.9457 31.7244 21.5374 31.5132 21.078L30.4575 19.2407C33.0968 33.531 21.1672 16.893 14.7801 26.641Z" fill="#3267A0"/>
<path fill-rule="evenodd" clip-rule="evenodd" d="M7.54818 30.6729H7.23146C6.59803 30.6729 6.01739 30.5709 5.48953 30.4688H5.38396C5.2256 30.4178 5.12003 30.4178 4.96167 30.3667L4.8561 30.3157C4.4866 30.2136 4.1171 30.1115 3.7476 29.9584C3.69481 29.9074 3.64202 29.9074 3.53645 29.8564C3.48367 29.8053 3.43088 29.8053 3.37809 29.7543C3.32531 29.7032 3.27252 29.7032 3.21974 29.6522C3.06138 29.5501 2.90302 29.4481 2.74466 29.346C2.58631 29.2439 2.37516 29.0908 2.21681 28.9377L2.11123 28.8356L2.00566 28.7336L1.90009 28.6315L1.79452 28.5294C1.74173 28.4784 1.68895 28.4273 1.63616 28.3763C1.58338 28.3253 1.53059 28.2232 1.4778 28.1721V28.1211H1.42502C1.37223 28.019 1.31945 27.968 1.26666 27.8659V27.8149C1.16109 27.6618 1.05552 27.4576 1.00273 27.2535V27.2024H0.949945C0.844374 26.8962 0.738802 26.59 0.686016 26.2838V26.1817C0.63323 25.9776 0.63323 25.7224 0.580444 25.5182C0.580444 25.4162 0.580444 25.3141 0.580444 25.212V24.8037C0.580444 24.5996 0.63323 24.4465 0.63323 24.2423L0.686016 24.0892V23.9871C0.686016 23.9871 0.949945 22.8133 1.8473 21.2312L1.95288 21.078C2.11123 20.8229 2.26959 20.5677 2.48074 20.3125C2.63909 20.1084 2.79745 19.8532 3.00859 19.649C3.11417 19.4959 3.27252 19.3428 3.37809 19.1897C3.53645 18.9855 3.69481 18.8324 3.85317 18.6283L3.95874 18.5262L4.06431 18.3731V18.3221C4.43381 17.9138 4.90888 17.5055 5.38396 17.0972C5.54231 16.9441 5.70067 16.842 5.85903 16.6889H5.91182V16.6379L5.9646 16.5868H6.01739L6.12296 16.4847C6.22853 16.4337 6.28132 16.3316 6.38689 16.2806H6.43967V16.2296L6.54525 16.1785C6.65082 16.0765 6.80918 15.9744 6.91475 15.9233L7.12589 15.7702C7.28425 15.6682 7.38982 15.6171 7.54818 15.5151C7.60096 15.464 7.65375 15.464 7.70653 15.413C7.75932 15.3619 7.86489 15.3619 7.91768 15.3109C8.23439 15.1578 8.49832 15.0557 8.86782 14.9026C8.92061 14.8516 8.9734 14.8516 8.9734 14.8516H9.02618C9.07897 14.8516 9.18454 14.8005 9.23732 14.8005C9.44847 14.8005 9.60682 14.9026 9.65961 15.0557C9.65961 15.1068 9.65961 15.1578 9.60683 15.2599C4.16988 24.9058 12.9323 28.7336 17.4191 30.0605C17.6303 30.1115 17.6831 30.3667 17.6303 30.5198C17.5775 30.6219 17.4719 30.6729 17.3663 30.6729L7.81211 30.724L7.54818 30.6729Z" fill="url(#paint1_linear_2824_41476)"/>
<path fill-rule="evenodd" clip-rule="evenodd" d="M10.5569 5.30778C10.6625 5.10363 10.768 4.95052 10.8736 4.79741C11.0848 4.49119 11.2431 4.18497 11.4543 3.92979C11.6126 3.77668 11.771 3.57253 11.8765 3.41942L11.9293 3.31735C12.3516 2.90905 12.7739 2.5518 13.1962 2.24558C13.6185 1.93936 14.0408 1.73521 14.5158 1.5821C14.6214 1.53106 14.727 1.53106 14.8326 1.48003C14.9381 1.42899 15.0965 1.42899 15.2021 1.37795C15.5188 1.32692 15.8355 1.27588 16.1522 1.27588C16.3633 1.27588 16.5745 1.27588 16.7856 1.32692V1.37795H17.1023C17.1551 1.37795 17.2079 1.42899 17.3135 1.42899V1.48003H17.5246C17.683 1.53106 17.8414 1.5821 17.9997 1.63314V1.68417H18.1053L18.2109 1.73521V1.78625H18.3164L18.422 1.83728V1.88832H18.4748L18.5804 1.93936V1.99039H18.6859L18.7915 2.04143V2.09247H18.8443L19.0026 2.1435C19.1082 2.19454 19.2138 2.24558 19.3194 2.34765H19.3721L19.5305 2.44972L19.7416 2.60283C19.7416 2.60283 20.3751 3.1132 21.1141 4.0829C21.3252 4.33808 21.4836 4.59326 21.6947 4.89948C21.8003 5.05259 21.9059 5.25674 22.0114 5.46089C22.2226 5.86918 22.4865 6.27747 22.6977 6.78784V6.83888L22.8032 7.04302C22.9616 7.34924 23.0672 7.65546 23.2255 8.01272C23.2783 8.11479 23.2783 8.21687 23.3311 8.2679V8.31894C23.3839 8.42101 23.3839 8.52309 23.4367 8.57412V8.62516L23.5422 8.93138C23.595 9.03345 23.595 9.13553 23.6478 9.28864V9.33967C23.7534 9.69693 23.8589 10.0542 23.9117 10.4625V10.6156H23.9645C24.0173 10.7177 24.0173 10.8708 24.0173 10.9728V11.126H24.0701C24.1229 11.2791 24.1229 11.4322 24.1229 11.5853V11.6363C24.1757 11.7894 24.1757 11.9425 24.1757 12.1467C24.1757 12.1977 24.1757 12.2998 24.1757 12.3508V13.0654C24.1757 13.3716 24.1229 13.7288 24.1229 14.0861C24.1229 14.5454 23.7534 14.9537 23.4894 14.5965C17.3663 5.51192 10.029 11.0749 6.65075 14.3413C6.38682 14.6475 5.91175 14.2902 6.0701 13.933L10.3458 5.76711C10.4513 5.56296 10.5041 5.40985 10.5569 5.30778Z" fill="url(#paint2_linear_2824_41476)"/>
<path d="M10.7158 13.7288C9.55452 14.2391 8.39323 14.9026 7.23194 15.6682C7.23194 15.6682 7.23194 15.6682 7.17915 15.6682C7.12637 15.6682 7.12637 15.7192 7.12637 15.7192C6.59851 16.0764 6.12344 16.4337 5.64836 16.842C5.49001 16.9441 5.38443 17.0972 5.22608 17.1993C5.22608 17.1993 5.22608 17.1993 5.17329 17.2503C5.01493 17.3524 4.90936 17.5055 4.80379 17.6075C4.80379 17.6075 4.80379 17.6075 4.751 17.6586C4.64543 17.7607 4.48708 17.8627 4.3815 18.0158C4.3815 18.0158 4.3815 18.0158 4.32872 18.0669C4.22315 18.169 4.11757 18.271 4.012 18.4241C4.012 18.4241 4.012 18.4241 3.95922 18.4752C3.85365 18.5772 3.74807 18.6793 3.6425 18.8324C3.53693 18.9345 3.43136 19.0876 3.32579 19.1897C2.74514 19.9042 2.27007 20.5677 1.90057 21.1291C1.84778 21.2312 1.795 21.3332 1.74221 21.3843C0.792065 22.9664 0.580922 24.1402 0.580922 24.1402L0.528136 24.3954L0.47535 24.5485C0.422564 24.8037 0.422564 25.0589 0.422564 25.3141C0.369778 26.59 0.739279 27.7128 1.47828 28.6315C1.47828 28.6315 1.47828 28.6315 1.53107 28.6825C1.58385 28.7846 1.68942 28.8356 1.74221 28.9377L1.795 28.9887L1.84778 29.0398L1.90057 29.0908C1.95335 29.1418 2.00614 29.1929 2.00614 29.1929C2.21728 29.0908 2.27007 29.0908 2.27007 29.1418L2.32286 29.1929C2.37564 29.2439 2.42843 29.2949 2.48121 29.2949C2.58678 29.346 2.63957 29.397 2.63957 29.4481C4.27593 30.5709 6.17622 30.6729 6.17622 30.6729C6.6513 30.724 7.17915 30.775 7.70701 30.775H9.81845C-4.32816 26.1307 16.3111 23.9361 10.7158 13.7288Z" fill="#BA343C"/>
<path d="M24.4399 15.9233C24.5455 14.6474 24.4927 13.3205 24.2816 11.9935C24.2816 11.9935 24.2816 11.9935 24.2816 11.9425C24.2816 11.8914 24.2816 11.8914 24.2816 11.8404C24.176 11.228 24.0704 10.6155 23.9649 10.0541C23.9121 9.84997 23.8593 9.69686 23.8065 9.49271C23.8065 9.49271 23.8065 9.49271 23.8065 9.44168C23.7537 9.28856 23.7009 9.08442 23.6481 8.93131V8.88027C23.5954 8.72716 23.5426 8.57405 23.4898 8.42094V8.3699C23.437 8.21679 23.3842 8.06368 23.3314 7.91057C23.3314 7.91057 23.3314 7.91057 23.3314 7.85954C23.2786 7.70643 23.2259 7.55332 23.1731 7.45124C23.1203 7.29813 23.0675 7.14502 23.0147 7.04295C22.6452 6.17533 22.2757 5.46081 21.9062 4.89941C21.8534 4.79734 21.8006 4.69526 21.7478 4.64423C20.7449 3.11313 19.7948 2.34758 19.7948 2.34758L19.5836 2.19447L19.4253 2.09239C19.2141 1.93928 19.003 1.78617 18.7391 1.6841C17.6306 1.02062 16.4165 0.816475 15.2552 1.07166H15.2024C15.0968 1.1227 14.9913 1.1227 14.8857 1.17373C14.8329 1.17373 14.8329 1.17373 14.8329 1.22477C14.8329 1.22477 14.7801 1.22477 14.7801 1.27581H14.7273C14.6745 1.27581 14.6218 1.32684 14.569 1.32684C14.5162 1.32684 14.4634 1.37788 14.4106 1.37788C14.4106 1.37788 14.3578 1.37788 14.3578 1.42892C14.305 1.47995 14.2523 1.53099 14.1995 1.58203C14.1467 1.63306 14.0939 1.63306 14.0411 1.6841C12.2992 2.60276 11.2962 4.23593 11.2962 4.23593C11.0323 4.64423 10.7684 5.05252 10.5045 5.51185L9.50153 7.29813C20.2171 -2.9092 12.6687 16.0254 24.4399 15.9233Z" fill="#CDCECF"/>
<defs>
<linearGradient id="paint0_linear_2824_41476" x1="16.3332" y1="21.3971" x2="32.6545" y2="21.3971" gradientUnits="userSpaceOnUse">
<stop offset="0.0376067" stop-color="#002D3A"/>
<stop offset="0.1359" stop-color="#0D3B51"/>
<stop offset="0.2179" stop-color="#12425C"/>
<stop offset="0.5113" stop-color="#1A4D72"/>
<stop offset="0.8225" stop-color="#1E5786"/>
<stop offset="1" stop-color="#235794"/>
</linearGradient>
<linearGradient id="paint1_linear_2824_41476" x1="0.533887" y1="22.7405" x2="17.6179" y2="22.7405" gradientUnits="userSpaceOnUse">
<stop offset="0.017094" stop-color="#192C37"/>
<stop offset="0.0572917" stop-color="#44323B"/>
<stop offset="0.3646" stop-color="#943539"/>
<stop offset="0.724" stop-color="#BE2B34"/>
<stop offset="1" stop-color="#C82432"/>
</linearGradient>
<linearGradient id="paint2_linear_2824_41476" x1="6.02956" y1="7.97807" x2="24.154" y2="7.97807" gradientUnits="userSpaceOnUse">
<stop stop-color="#B9BBBC"/>
<stop offset="0.349" stop-color="#959797"/>
<stop offset="0.5017" stop-color="#7D7F7F"/>
<stop offset="0.6248" stop-color="#616363"/>
<stop offset="0.6675" stop-color="#575A5A"/>
<stop offset="0.7321" stop-color="#505454"/>
<stop offset="0.8812" stop-color="#4F5352"/>
<stop offset="1" stop-color="#4E5252"/>
</linearGradient>
</defs>
</svg>
