<svg width="788" height="364" viewBox="0 0 788 364" fill="none" xmlns="http://www.w3.org/2000/svg">
<g opacity="0.2">
<mask id="path-1-inside-1_2959_996" fill="white">
<path d="M0.475916 183.447C49.582 121.099 118.608 70.7292 198.826 38.7075C279.043 6.68585 366.849 -5.54955 451.14 3.54859C535.431 12.6467 612.42 42.6698 672.373 89.8211C732.326 136.972 772.549 199.134 787.957 268.446L358.929 363.815L0.475916 183.447Z"/>
</mask>
<path d="M0.475916 183.447C49.582 121.099 118.608 70.7292 198.826 38.7075C279.043 6.68585 366.849 -5.54955 451.14 3.54859C535.431 12.6467 612.42 42.6698 672.373 89.8211C732.326 136.972 772.549 199.134 787.957 268.446L358.929 363.815L0.475916 183.447Z" stroke="#2051A3" stroke-width="2" stroke-dasharray="7 7" mask="url(#path-1-inside-1_2959_996)"/>
</g>
</svg>
