<svg width="24" height="24" viewBox="0 0 24 24" fill="none" xmlns="http://www.w3.org/2000/svg">
<path fill-rule="evenodd" clip-rule="evenodd" d="M17.7917 4.5463C20.9083 5.85196 23.5052 6.94096 23.5625 6.9663C23.6448 7.00255 23.6667 8.58213 23.6667 14.4616V21.911H12H0.33334V14.4661V7.02113L0.562506 6.91438C1.28359 6.57838 11.9505 2.16196 12.0297 2.16663C12.0821 2.16971 14.675 3.24055 17.7917 4.5463ZM12.9167 8.28605V12.0777H17.375H21.8333L21.8312 10.1402L21.829 8.20271L20.4978 7.65096L19.1667 7.09921V7.7968V8.49438H17.375H15.5833V7.57996V6.66546L16.802 6.64246L18.0206 6.61938L15.5312 5.5653C14.1619 4.98555 13.0135 4.50746 12.9792 4.5028C12.9448 4.49813 12.9167 6.20063 12.9167 8.28605ZM8.41984 5.58913L5.96476 6.61938L7.19067 6.64246L8.41667 6.66546V7.57996V8.49438H6.62501H4.83334V7.79555V7.09663L3.50092 7.64971L2.16859 8.20271L2.16759 10.1402L2.16667 12.0777H6.62501H11.0833V8.27713C11.0833 5.2703 11.0616 4.48513 10.9792 4.51771C10.9218 4.54038 9.77017 5.02246 8.41984 5.58913ZM12.9167 17.036V20.161H17.375H21.8333V17.036V13.911H17.375H12.9167V17.036ZM2.16667 17.036V20.161H6.62501H11.0833V17.036V13.911H6.62501H2.16667V17.036ZM19.1667 15.661V16.5777H17.375H15.5833V15.661V14.7444H17.375H19.1667V15.661ZM8.41667 15.661V16.5777H6.62501H4.83334V15.661V14.7444H6.62501H8.41667V15.661Z" fill="white"/>
</svg>
