<svg width="276" height="169" viewBox="0 0 276 169" fill="none" xmlns="http://www.w3.org/2000/svg">
<rect width="276" height="169" fill="white"/>
<path d="M37.1836 77.6436L41.4206 71.0586L56.6146 85.1346L52.3766 103.864L37.1836 77.6436V77.6436Z" fill="#9B9FB3"/>
<path d="M37.363 77.6435L52.254 103.379L56.371 85.2555L41.419 71.4195L37.363 77.6425V77.6435ZM52.193 103.983L37 77.7035V77.5225L41.237 70.9975L41.54 70.9375L56.794 85.0135L56.855 85.1945L52.618 103.924L52.194 103.983H52.193ZM104.376 87.6105H106.918C108.069 87.6105 110.611 87.4305 110.611 84.5905C110.611 81.7505 108.069 81.5695 106.918 81.5695H104.376V87.6105ZM100.078 77.4005H106.555C114.001 77.4005 114.848 82.4155 114.848 84.6505C114.848 87.5505 113.274 91.7795 106.555 91.7795H104.376V100.539H100.078V77.4005V77.4005ZM121.927 88.4565H124.469C125.498 88.4565 128.767 88.3365 128.767 85.0125C128.767 81.6905 125.498 81.5695 124.469 81.5695H121.927V88.4565V88.4565ZM117.629 77.4005H124.348C132.157 77.4005 133.065 82.5365 133.065 84.7705C133.065 88.4565 130.583 91.6585 126.83 92.0205L133.368 100.539H128.101L122.108 92.0215H122.048V100.539H117.75V77.4005H117.629ZM154.74 88.9995C154.74 84.7105 151.35 81.1465 146.81 81.1465C142.27 81.1465 138.88 84.6505 138.88 89.0005C138.88 93.3505 142.27 96.9145 146.749 96.9145C151.41 96.9745 154.74 93.3505 154.74 89.0005V88.9995ZM159.038 89.1205C159.038 95.8275 153.711 101.143 146.81 101.143C139.909 101.143 134.582 95.8265 134.582 89.1205C134.582 82.4145 139.848 77.0385 146.81 77.0385C153.771 76.9785 159.038 82.4145 159.038 89.1205V89.1205Z" fill="#9B9FB3"/>
<path d="M178.95 77.4004L170.96 89.0004L178.95 100.539H173.926L168.418 92.5644L162.97 100.539H157.945L165.936 88.9994L157.945 77.4004H162.97L168.418 85.4354L173.926 77.4004H178.95V77.4004ZM185.61 77.4004H181.312V100.539H185.61V77.4004ZM208.069 77.4004H213.941V100.539H209.643V83.2004L203.771 100.539H200.139L194.268 83.2004V100.539H189.97V77.4004H195.781L201.955 95.1024L208.069 77.4004V77.4004ZM230.284 90.3894L227.681 83.6234L225.078 90.3904H230.284V90.3894ZM225.926 77.4004H229.376L239.001 100.539H234.279L231.918 94.5594H223.383L221.022 100.539H216.301L225.926 77.4004ZM152.375 112.924C151.83 114.435 150.62 115.462 148.864 115.462C146.201 115.462 144.93 113.408 144.93 111.595C144.93 109.964 146.14 107.85 148.804 107.85C150.62 107.85 151.952 108.877 152.375 110.447H150.438C150.075 109.783 149.47 109.481 148.743 109.481C147.351 109.481 146.625 110.508 146.625 111.656C146.625 112.864 147.472 113.831 148.743 113.831C149.046 113.831 149.954 113.77 150.438 112.924H152.375V112.924ZM154.798 111.716C154.798 112.924 155.646 113.831 156.917 113.831C158.128 113.831 158.975 112.924 158.975 111.656C158.975 110.447 158.188 109.481 156.917 109.481C155.706 109.481 154.798 110.447 154.798 111.716ZM160.61 115.22H159.036V114.254C158.768 114.63 158.413 114.935 158.002 115.145C157.592 115.355 157.137 115.464 156.675 115.462C154.859 115.462 153.164 114.012 153.164 111.716C153.164 109.481 154.738 107.85 156.736 107.85C157.765 107.85 158.551 108.272 159.096 109.058V108.031H160.67L160.61 115.22V115.22ZM163.574 111.656C163.574 113.045 164.421 113.831 165.632 113.831C166.843 113.831 167.751 112.924 167.751 111.656C167.751 110.689 167.145 109.481 165.693 109.481C164.421 109.481 163.574 110.447 163.574 111.656ZM162 108.091H163.574V108.997C164.179 108.031 165.329 107.85 165.874 107.85C167.811 107.85 169.446 109.36 169.446 111.656C169.446 113.589 168.114 115.462 165.874 115.462C165.269 115.462 164.421 115.281 163.695 114.435V117.576H162V108.091ZM170.538 108.091H172.233V115.22H170.538V108.091ZM170.538 105.735H172.233V107.306H170.538V105.735ZM175.562 105.735V108.091H176.591V109.602H175.562V115.22H173.867V109.602H173.02V108.091H173.867V105.735H175.562ZM178.832 111.716C178.832 112.924 179.679 113.831 180.95 113.831C182.161 113.831 183.008 112.924 183.008 111.656C183.008 110.447 182.222 109.481 180.95 109.481C179.679 109.481 178.832 110.447 178.832 111.716ZM184.582 115.22H183.008V114.254C182.74 114.63 182.386 114.935 181.975 115.145C181.564 115.356 181.109 115.464 180.648 115.462C178.832 115.462 177.137 114.012 177.137 111.716C177.137 109.481 178.711 107.85 180.708 107.85C181.737 107.85 182.524 108.272 183.069 109.058V108.031H184.643L184.582 115.22V115.22ZM187.668 105.735H185.973V115.281H187.668V105.735V105.735ZM193.419 111.535C193.419 112.683 194.145 113.65 195.477 113.65C196.748 113.65 197.535 112.683 197.535 111.595C197.535 110.327 196.687 109.481 195.477 109.481C194.145 109.481 193.419 110.508 193.419 111.535V111.535ZM199.23 114.133C199.23 116.67 197.353 117.999 195.416 117.999C193.721 117.999 192.269 117.093 191.845 115.401H193.842C194.145 116.368 195.235 116.368 195.416 116.368C196.627 116.368 197.535 115.462 197.535 114.435V114.193C197.353 114.495 196.748 115.341 195.416 115.341C193.419 115.341 191.784 113.649 191.784 111.595C191.784 109.42 193.479 107.91 195.416 107.91C195.961 107.91 196.99 108.031 197.656 109.118V108.152H199.23V114.133V114.133ZM200.622 108.091H202.196V108.756C202.559 108.151 203.164 107.789 203.83 107.91V109.541C202.256 109.541 202.317 110.991 202.317 111.414V115.28H200.622V108.091V108.091ZM206.068 111.656C206.068 112.804 206.855 113.831 208.126 113.831C209.397 113.831 210.184 112.804 210.184 111.656C210.184 110.508 209.397 109.481 208.126 109.481C206.915 109.481 206.068 110.508 206.068 111.656ZM211.94 111.656C211.942 112.157 211.844 112.654 211.653 113.117C211.462 113.58 211.181 114 210.826 114.354C210.472 114.708 210.05 114.988 209.587 115.178C209.124 115.368 208.627 115.465 208.126 115.462C205.947 115.462 204.312 113.77 204.312 111.656C204.312 109.541 205.886 107.85 208.126 107.85C210.366 107.85 211.94 109.602 211.94 111.656ZM219.325 115.22H217.751V114.555C217.146 115.341 216.359 115.461 215.874 115.461C213.15 115.461 212.969 113.105 212.969 111.957V108.091H214.664V111.716C214.664 112.501 214.724 113.83 216.117 113.83C217.509 113.83 217.569 112.501 217.569 111.716V108.091H219.264L219.325 115.22V115.22ZM222.354 111.656C222.354 113.045 223.202 113.831 224.412 113.831C225.623 113.831 226.531 112.924 226.531 111.656C226.531 110.689 225.926 109.481 224.473 109.481C223.202 109.481 222.354 110.447 222.354 111.656ZM220.72 108.091H222.294V108.997C222.899 108.031 224.049 107.85 224.594 107.85C226.531 107.85 228.165 109.36 228.165 111.656C228.165 113.589 226.834 115.462 224.594 115.462C223.989 115.462 223.081 115.281 222.415 114.435V117.576H220.72V108.091V108.091ZM58.9102 100.54H76.7682L91.5982 77.5824L69.7462 81.2674L58.9102 100.54Z" fill="#9B9FB3"/>
<path d="M59.2746 100.359H76.7076L91.1756 77.824L69.8676 81.449L59.2746 100.359V100.359ZM76.7686 100.721H58.9096L58.7286 100.419L69.5036 81.147L69.6246 81.027L91.4766 77.28L91.6586 77.582L76.8886 100.54L76.7676 100.721H76.7686ZM37.1836 77.643L59.0356 73.897L69.8106 54.625H51.9536L37.1836 77.643Z" fill="#9B9FB3"/>
<path d="M52.073 54.8058L37.545 77.3408L58.852 73.7158L69.446 54.8058H52.073ZM37.182 77.8238L37 77.5218L51.77 54.5638L51.952 54.5038H69.809L69.991 54.8058L59.155 74.0778L59.035 74.1988L37.182 77.8238V77.8238ZM91.605 77.5818L87.368 84.1068L72.113 70.0288L76.351 51.3008L91.605 77.5808V77.5818Z" fill="#9B9FB3"/>
<path d="M72.3527 69.9696L87.3657 83.8046L91.4207 77.5826L76.5307 51.8456L72.3527 69.9706V69.9696ZM87.2447 84.2276L71.9897 70.1516L71.9297 69.9706L76.1667 51.2416L76.5297 51.1816L91.7237 77.4616V77.6426L87.4867 84.1676L87.2447 84.2276V84.2276Z" fill="#9B9FB3"/>
</svg>
