<svg width="276" height="169" viewBox="0 0 276 169" fill="none" xmlns="http://www.w3.org/2000/svg">
<rect width="276" height="169" fill="white"/>
<path d="M127.29 88.6067H129.184V92.8238H130.552L133.007 88.6067H135.077L132.13 93.5563V93.5907L135.253 98.9919H133.113L130.587 94.4607H129.22V98.9919H127.325V88.6055H127.29V88.6067ZM139.497 91.3605C141.776 91.3605 143.636 92.9982 143.636 95.2636C143.636 97.5646 141.812 99.1675 139.532 99.1675C137.251 99.1675 135.427 97.5642 135.427 95.2636C135.393 92.9634 137.216 91.3605 139.497 91.3605ZM145.109 91.5337H146.898V97.3898H149.248V91.5349H151.036V97.3898H153.387V91.5349H155.176V98.9919H145.179V91.5337H145.109ZM160.473 91.3605C162.612 91.3605 163.805 92.9286 163.805 94.8812C163.799 95.1262 163.776 95.3704 163.735 95.6121H158.579C158.684 96.9014 159.701 97.599 160.824 97.599C161.595 97.599 162.367 97.2502 162.963 96.7974L163.7 98.1223C162.929 98.7831 161.771 99.2023 160.684 99.2023C158.193 99.2023 156.65 97.4246 156.65 95.298C156.65 92.9634 158.228 91.3605 160.474 91.3605H160.473ZM164.682 97.4246C165.594 97.285 166.26 96.5189 166.26 93.8691V91.5349H171.733V98.9919H169.873V93.0318H168.049V93.8683C168.049 97.1093 167.173 98.9919 164.682 99.0615V97.4238V97.4246ZM177.064 91.3605C179.204 91.3605 180.396 92.9286 180.396 94.8812C180.39 95.1262 180.367 95.3704 180.326 95.6121H175.17C175.276 96.9014 176.292 97.599 177.415 97.599C178.186 97.599 178.958 97.2502 179.554 96.7974L180.292 98.1223C179.52 98.7831 178.362 99.2023 177.275 99.2023C174.785 99.2023 173.241 97.4246 173.241 95.298C173.241 92.9634 174.82 91.3605 177.065 91.3605H177.064ZM181.94 91.5337H183.798V94.3924H184.711L186.535 91.5345H188.605L186.219 95.0892V95.1248L188.885 98.9919H186.711L184.746 95.9609H183.765V98.9919H181.904V91.5337H181.939H181.94ZM139.497 97.5646C140.725 97.5646 141.742 96.6229 141.742 95.2288C141.742 93.8695 140.725 92.893 139.496 92.893C138.27 92.893 137.288 93.8355 137.288 95.2288C137.288 96.6229 138.268 97.5642 139.497 97.5642V97.5646ZM161.911 94.3232C161.911 93.3471 161.244 92.7546 160.402 92.7546C159.456 92.7546 158.754 93.3819 158.579 94.3228L161.911 94.3232ZM178.502 94.3232C178.502 93.3471 177.836 92.7546 176.995 92.7546C176.046 92.7546 175.345 93.3819 175.17 94.3228L178.502 94.3232Z" fill="#9B9FB3"/>
<path d="M153.492 65.9868V83.5883C153.494 83.6526 153.482 83.7166 153.458 83.7764C153.434 83.8362 153.398 83.8905 153.352 83.936C153.306 83.9815 153.251 84.0174 153.191 84.0414C153.131 84.0653 153.067 84.0769 153.002 84.0755H149.388C149.323 84.0769 149.259 84.0653 149.199 84.0414C149.139 84.0174 149.084 83.9815 149.038 83.936C148.992 83.8905 148.956 83.8362 148.932 83.7764C148.908 83.7166 148.896 83.6526 148.898 83.5883V65.9868C148.896 65.9225 148.908 65.8584 148.932 65.7987C148.956 65.7389 148.992 65.6846 149.038 65.6391C149.084 65.5935 149.139 65.5577 149.199 65.5337C149.259 65.5098 149.323 65.4982 149.388 65.4996H153.002C153.067 65.4982 153.131 65.5098 153.191 65.5337C153.251 65.5577 153.306 65.5935 153.352 65.6391C153.398 65.6846 153.434 65.7389 153.458 65.7987C153.482 65.8584 153.494 65.9225 153.492 65.9868V65.9868ZM181.694 65.4996C181.835 65.4996 182.011 65.5688 182.184 65.7084C182.291 65.8124 182.291 65.9868 182.256 66.1269L176.292 83.7627C176.256 83.8539 176.193 83.9324 176.112 83.9883C176.031 84.0442 175.935 84.075 175.836 84.0767H172.61C172.399 84.0767 172.223 83.9715 172.154 83.7627L168.679 73.4811L165.207 83.7619C165.17 83.853 165.108 83.9314 165.026 83.9873C164.945 84.0431 164.849 84.0738 164.751 84.0755H161.524C161.314 84.0755 161.138 83.9715 161.068 83.7614L155.104 66.1256C155.069 65.9868 155.069 65.8472 155.174 65.7084C155.245 65.5688 155.42 65.4996 155.56 65.4996H159.594C159.804 65.4996 159.98 65.638 160.05 65.8472L163.242 76.2685L166.75 65.8472C166.786 65.756 166.849 65.6775 166.93 65.6216C167.011 65.5657 167.107 65.5349 167.206 65.5332H170.047C170.257 65.5332 170.433 65.638 170.503 65.8472L174.011 76.2685L177.203 65.8472C177.232 65.7484 177.291 65.6614 177.373 65.5987C177.455 65.5361 177.555 65.5012 177.659 65.4992H181.693L181.694 65.4996ZM187.797 65.4996C188.043 65.4996 188.253 65.7084 188.288 65.9868V83.5883C188.289 83.6526 188.278 83.7166 188.253 83.7764C188.229 83.8362 188.193 83.8905 188.147 83.936C188.102 83.9815 188.047 84.0174 187.987 84.0414C187.927 84.0653 187.862 84.0769 187.797 84.0755H184.184C184.119 84.0769 184.055 84.0653 183.995 84.0414C183.935 84.0174 183.88 83.9815 183.834 83.936C183.788 83.8905 183.752 83.8362 183.728 83.7764C183.704 83.7166 183.692 83.6526 183.694 83.5883V65.9868C183.692 65.9225 183.704 65.8584 183.728 65.7987C183.752 65.7389 183.788 65.6846 183.834 65.6391C183.88 65.5935 183.935 65.5577 183.995 65.5337C184.055 65.5098 184.119 65.4982 184.184 65.4996H187.797ZM146.793 83.4495C147.003 83.6931 146.828 84.0411 146.512 84.0411H142.091C142.004 84.0434 141.918 84.0257 141.839 83.9895C141.76 83.9532 141.69 83.8992 141.636 83.8319L140.9 82.9262C139.356 83.9011 137.531 84.4947 135.602 84.4947C130.202 84.4947 125.817 80.138 125.817 74.7703C125.817 69.4027 130.202 65.0456 135.603 65.0456C141.005 65.0456 145.39 69.4027 145.39 74.7703C145.39 76.6877 144.828 78.5003 143.846 80.0328L146.793 83.4482V83.4495ZM109.856 91.9881C110.769 92.3366 111.12 93.6955 111.189 94.2879C111.33 95.3688 111.015 95.7868 110.664 95.7868C110.313 95.7868 109.821 95.3692 109.296 94.5327C108.769 93.695 108.558 92.755 108.84 92.2665C109.015 91.9521 109.4 91.8137 109.857 91.9881H109.856ZM104.525 95.9269C105.086 95.9269 105.718 96.1705 106.279 96.6581C107.366 97.5646 107.682 98.6103 107.121 99.3767C106.805 99.7603 106.279 100.004 105.683 100.004C105.086 100.004 104.455 99.7952 104.034 99.4115C103.052 98.5755 102.772 97.1801 103.402 96.4145C103.648 96.1 104.034 95.9269 104.525 95.9269V95.9269ZM92.2489 105.999C78.9185 105.999 68.1152 95.264 68.1152 82.0201C68.1152 68.7755 78.9193 58.041 92.2477 58.041C105.576 58.041 116.381 68.7763 116.381 82.0197C116.381 86.5153 115.118 90.7336 112.979 94.3231C112.909 94.4275 112.733 94.3927 112.698 94.2531C111.856 88.3634 108.244 85.1212 102.982 84.1459C102.525 84.0755 102.455 83.7971 103.052 83.7279C104.665 83.5883 106.945 83.6226 108.138 83.8319C108.209 83.2187 108.244 82.6021 108.243 81.9849C108.243 73.2362 101.087 66.1256 92.2823 66.1256C83.4787 66.1256 76.3225 73.2362 76.3225 81.9849C76.3225 90.7336 83.4787 97.8442 92.2835 97.8442H93.0194C92.7693 96.4292 92.6633 94.9928 92.703 93.5567C92.7392 92.5806 92.9494 92.4406 93.3705 93.2078C95.5804 97.0069 98.7375 100.422 104.911 101.782C109.961 102.898 115.012 104.187 120.449 111.053C120.94 111.645 120.204 112.273 119.643 111.785C114.101 106.905 109.05 105.302 104.454 105.302C99.2979 105.337 95.7905 105.999 92.2477 105.999L92.2489 105.999ZM138.023 79.5455L136.094 77.2097C135.884 76.9661 136.06 76.5825 136.375 76.5825H140.444C140.654 76.0248 140.76 75.3976 140.76 74.7703C140.76 71.8777 138.585 69.3679 135.603 69.3679C132.622 69.3679 130.446 71.8777 130.446 74.7703C130.446 77.6626 132.622 80.138 135.603 80.138C136.445 80.1724 137.287 79.9292 138.023 79.5451V79.5455Z" fill="#9B9FB3"/>
</svg>
