<svg width="276" height="169" viewBox="0 0 276 169" fill="none" xmlns="http://www.w3.org/2000/svg">
<rect width="276" height="169" fill="white"/>
<g clip-path="url(#clip0_2824_41398)">
<path d="M96.4712 101.678L91.8179 93.9506L87.2609 101.678H81.8049L88.8143 90.039L81.6709 79.2331H87.3701L91.9464 86.4477L96.311 79.2331H101.766L94.7385 90.3915L101.959 101.678H96.4712Z" fill="#2051A3"/>
<path d="M119.693 94.0468C119.693 98.9846 115.97 102.063 111.092 102.063C106.791 102.063 103.171 99.6902 102.818 94.5277H107.471C107.792 96.7722 109.589 97.7342 111.547 97.7342C113.986 97.7342 115.039 96.0988 115.039 93.9826C115.039 91.7701 113.403 90.3914 111.124 90.3914C109.231 90.3914 107.979 91.2892 107.401 92.2512H102.953L104.491 79.2329H119.121L118.634 83.5938H108.169L107.753 87.9019C107.753 87.9019 108.853 86.6078 112.183 86.6078C116.195 86.6078 119.693 89.3012 119.693 94.0468Z" fill="#2051A3"/>
<path d="M103.369 76.4377C100.891 66.7834 93.025 60.0006 76.7047 60.0006H57.0001L59.6749 78.0715C61.6871 94.3775 67.9291 99.6236 78.9751 101.555C79.0272 101.563 79.3756 101.613 79.3809 101.203C79.3826 101.056 79.2889 100.929 79.1612 100.875C71.6948 97.7342 70.8427 87.4346 69.2482 77.098L68.0137 68.8613H79.2624C89.6336 68.8613 97.6394 68.6977 102.71 76.6953C102.786 76.8084 102.903 76.8913 103.042 76.8913C103.238 76.8913 103.383 76.7322 103.383 76.5362C103.383 76.502 103.378 76.469 103.369 76.4377Z" fill="#2051A3"/>
<path d="M123.596 90.4386C123.596 83.4661 128.662 78.4357 135.705 78.4357C140.421 78.4357 144.691 81.1738 145.934 84.9306L143.289 85.8222C142.333 83.0203 139.178 80.9828 135.705 80.9828C130.319 80.9828 126.496 84.8988 126.496 90.4386C126.496 95.9148 130.351 99.9263 135.705 99.9263C140.548 99.9263 144.372 96.456 144.5 91.935L133.347 91.9032V89.3243H147.432C147.91 96.9654 143.002 102.473 135.705 102.473C128.662 102.473 123.596 97.4111 123.596 90.4386Z" fill="#2051A3"/>
<path d="M150.918 85.5992H153.499V87.7641H153.786C154.519 86.2996 156.303 85.2808 158.088 85.2808C158.821 85.2808 159.586 85.44 160.064 85.6946V88.1461C159.235 87.7959 158.279 87.6685 157.674 87.6685C155.252 87.6685 153.563 89.8335 153.563 93.0173V101.677H150.918V85.5992Z" fill="#2051A3"/>
<path d="M176.178 93.6223C176.178 89.9926 173.661 87.3501 170.188 87.3501C166.682 87.3501 164.197 89.9926 164.197 93.6223C164.197 97.2836 166.682 99.9261 170.188 99.9261C173.661 99.9261 176.178 97.2836 176.178 93.6223ZM161.552 93.6223C161.552 88.5601 165.121 84.9624 170.188 84.9624C175.222 84.9624 178.823 88.5601 178.823 93.6223C178.823 98.7163 175.222 102.314 170.188 102.314C165.121 102.314 161.552 98.7163 161.552 93.6223Z" fill="#2051A3"/>
<path d="M196.611 101.677H193.966V99.4806H193.648C192.532 101.232 190.716 102.25 188.613 102.25C184.502 102.25 181.921 99.2896 181.921 95.1823V85.5993H184.566V95.1823C184.566 97.9205 186.159 99.8626 188.931 99.8626C191.64 99.8626 193.966 97.7931 193.966 94.9596V85.5993H196.611V101.677Z" fill="#2051A3"/>
<path d="M203.405 93.6223C203.405 97.1563 205.923 99.9262 209.396 99.9262C212.837 99.9262 215.355 97.1563 215.355 93.6223C215.355 90.0247 212.837 87.3502 209.396 87.3502C205.923 87.3502 203.405 90.0883 203.405 93.6223ZM218 93.6223C218 98.6528 214.399 102.314 209.715 102.314C207.133 102.314 204.967 101.2 203.788 99.2895H203.501V109H200.856V85.5992H203.501V88.0508H203.788C204.967 86.1086 207.038 84.9625 209.683 84.9625C214.367 84.9625 218 88.5919 218 93.6223Z" fill="#2051A3"/>
</g>
<defs>
<clipPath id="clip0_2824_41398">
<rect width="161" height="49" fill="white" transform="translate(57 60)"/>
</clipPath>
</defs>
</svg>
