<svg width="276" height="169" viewBox="0 0 276 169" fill="none" xmlns="http://www.w3.org/2000/svg">
<rect width="276" height="169" fill="white"/>
<path d="M82.3015 74.8015C78.727 76.6722 74.0666 78.4517 69.0895 80.1399C68.0488 71.197 63.9313 63.7141 59.6781 63.1665C55.1534 62.5734 52.1219 69.8738 52.8911 79.4555C53.0268 81.2806 53.2983 83.1057 53.7055 84.7939C52.6196 85.1133 51.5337 85.3871 50.4478 85.7065L49.8143 85.889C46.1946 86.8928 42.8463 87.8053 40.041 88.6722C42.1224 88.3985 44.6109 87.9878 47.3258 87.4859L50.312 94.1475L44.43 96.0639C43.0273 93.5544 41.5794 91.0905 40.0863 88.6722C43.706 97.5696 47.552 103.957 48.6832 114.224C57.0086 109.889 65.2435 108.84 73.0259 106.695C75.5598 105.874 78.0936 105.052 80.6726 104.277C78.0936 104.642 75.4693 105.007 72.8902 105.417L71.9853 98.0259L78.908 96.5202C79.3152 99.1209 79.9034 101.722 80.6726 104.277C80.0844 95.3338 81.6681 80.1399 82.3015 74.8015ZM70.0849 95.7901L62.4382 98.254L61.488 92.4137L68.7727 90.8167L70.0849 95.7901ZM61.2165 90.6342L60.2663 84.7939C62.4382 84.292 64.6553 83.7901 66.7819 83.2882L68.1393 88.3985L61.2165 90.6342ZM61.126 98.7103L54.7462 100.764L52.8911 94.2844L59.3162 92.87L61.126 98.7103ZM59.1804 68.3681C62.5287 68.3681 65.9222 73.5696 67.5511 80.6418C65.0625 81.4631 59.6781 83.1057 59.6781 83.1057C57.6873 83.6989 55.7417 84.2464 53.796 84.7939C52.8911 75.6684 55.2439 68.3681 59.1804 68.3681ZM57.0086 85.524L58.8637 91.3643L52.6649 93.3719L50.7645 86.8472C52.8006 86.4365 54.882 85.9802 57.0086 85.524ZM44.43 96.1551L50.5835 94.8319L53.4341 101.22L47.8687 102.999C46.828 100.627 45.6516 98.3453 44.43 96.1551ZM50.674 110.3C49.9048 107.836 48.9546 105.509 47.9592 103.227L53.7508 101.995L56.7371 108.703C54.701 109.159 52.7101 109.706 50.674 110.3ZM56.9633 108.611L55.0177 101.676L61.6237 100.262L63.7503 107.06C61.488 107.516 59.2257 108.018 56.9633 108.611ZM72.7092 105.463C69.8134 105.919 66.8724 106.421 63.9313 107.06L62.7549 100.033L70.7636 98.2996L72.7092 105.463ZM71.6233 95.3338L70.9898 90.3605L78.1841 88.7635C78.2293 90.178 78.3198 91.638 78.4555 93.0981L71.6233 95.3338ZM78.2293 85.1133L70.6279 87.5772L69.9944 82.5126C73.2069 81.6913 76.1932 80.9156 78.6818 80.1856C78.4555 81.6913 78.3198 83.3338 78.2293 85.1133Z" fill="#9B9FB3"/>
<path d="M81.4861 63.4869C81.4861 63.4869 84.9248 61.1599 85.1058 62.2094C85.3321 63.2588 84.6986 65.8596 84.6986 65.8596L87.2324 68.1866C87.2324 68.1866 87.3682 68.3234 87.4134 68.4147C87.5492 68.6428 87.6849 69.0535 86.8705 69.2816C85.7393 69.5554 83.7032 69.6923 83.7032 69.6923L82.5268 72.3843C82.5268 72.3843 82.1195 73.6618 81.3956 72.6124C80.6716 71.6086 79.6762 69.6466 79.6762 69.6466L76.8257 69.1447C76.8257 69.1447 75.423 68.9166 76.4184 67.8215C77.4139 66.7265 78.4093 65.8596 78.4093 65.8596L77.6401 62.985C77.6401 62.985 77.5949 62.7569 77.5949 62.6657C77.6401 62.3463 77.8211 61.7987 78.6808 62.2094C79.9477 62.7569 81.4861 63.4869 81.4861 63.4869Z" fill="#9B9FB3"/>
<path d="M72.6182 55.274C73.0706 55.8672 73.5231 57.6467 73.5231 57.6467L75.7854 58.2398C75.7854 58.2398 75.9212 58.2855 75.9664 58.3311C76.1022 58.4223 76.3284 58.6505 75.9212 59.0155C75.333 59.563 74.1113 60.2474 74.1113 60.2474L74.247 62.255C74.247 62.255 74.3828 63.1676 73.6136 62.7569C72.8444 62.3463 71.6227 61.4794 71.6227 61.4794L69.7224 62.0725C69.7224 62.0725 68.7722 62.3919 69.0437 61.3881C69.3151 60.3843 69.6319 59.563 69.6319 59.563L68.2745 58.0573C68.2745 58.0573 68.184 57.9204 68.1387 57.8748C68.0482 57.6467 68.003 57.2817 68.6817 57.236C69.5866 57.1904 70.763 57.1448 70.763 57.1448C70.763 57.1448 72.1657 54.7265 72.6182 55.274Z" fill="#9B9FB3"/>
<path d="M61.0802 58.8316C61.0802 58.8316 61.4874 56.8696 61.8947 57.1434C62.3019 57.4172 62.9806 58.5578 62.9806 58.5578L64.6547 58.5122C64.6547 58.5122 64.7452 58.5122 64.7905 58.5122C64.9262 58.5578 65.1072 58.6491 64.8809 58.9685C64.5642 59.4704 63.9308 60.2004 63.9308 60.2004L64.4285 61.5236C64.4285 61.5236 64.7 62.1168 64.1118 61.9799C63.5235 61.8886 62.5281 61.5236 62.5281 61.5236L61.3517 62.2993C61.3517 62.2993 60.7635 62.7099 60.7635 61.9799C60.7635 61.2499 60.8087 60.6111 60.8087 60.6111L59.5871 59.881C59.5871 59.881 59.4966 59.8354 59.4513 59.7898C59.3608 59.6529 59.2251 59.4248 59.6776 59.2422C60.311 59.0597 61.0802 58.8316 61.0802 58.8316Z" fill="#9B9FB3"/>
<path d="M131.122 91.1384H136.325L133.701 82.0585L131.122 91.1384ZM129.855 76.127H137.592L145.691 100.811H138.859L137.592 96.5224H129.855L128.588 100.811H121.756L129.855 76.127Z" fill="#9B9FB3"/>
<path d="M165.691 98.9395C163.655 100.445 159.311 101.54 157.366 101.54C150.579 101.54 145.737 96.3844 145.737 88.4908C145.737 80.2323 151.122 75.4414 157.275 75.4414C159.311 75.4414 163.791 77.2209 165.691 78.6353L163.519 84.6125C162.343 83.1524 160.578 81.6467 158.135 81.6467C154.606 81.6467 152.298 84.7038 152.298 88.719C152.298 92.4604 154.47 95.3806 158.135 95.3806C160.488 95.3806 162.343 94.0117 163.519 92.6886L165.691 98.9395Z" fill="#9B9FB3"/>
<path d="M184.377 88.4908C184.377 83.7456 181.663 81.373 178.722 81.373C175.78 81.373 173.066 83.7456 173.066 88.4908C173.066 93.2361 175.78 95.6087 178.722 95.6087C181.663 95.6087 184.377 93.2361 184.377 88.4908ZM166.505 88.4908C166.505 81.8749 170.396 75.4414 178.722 75.4414C187.047 75.4414 190.938 81.8749 190.938 88.4908C190.938 95.1068 187.047 101.54 178.722 101.54C170.396 101.54 166.505 95.0612 166.505 88.4908Z" fill="#9B9FB3"/>
<path d="M213.336 76.127V100.811H206.956V82.0585H202.386V90.819C202.386 94.3779 202.114 101.131 194.106 101.131C193.156 101.131 191.436 100.811 190.124 100.218L193.02 95.1536C196.459 96.2486 195.961 93.2372 195.961 89.7695V76.127H213.336Z" fill="#9B9FB3"/>
<path d="M226.575 95.8973C228.566 95.8973 229.743 95.2585 229.743 93.2965C229.743 91.3345 228.566 90.7414 226.575 90.7414H223.861V95.9429L226.575 95.8973ZM217.436 76.1406H223.815V85.768H227.164C230.421 85.768 236.122 86.4524 236.122 93.2965C236.122 100.141 230.376 100.825 227.164 100.825H217.436V76.1406Z" fill="#9B9FB3"/>
<path d="M115.784 86.0274C114.2 88.0806 111.666 89.9513 108.725 91.2289V80.4152C108.725 80.4152 107.051 80.5065 104.879 81.3734C102.707 82.2403 102.028 83.016 102.028 83.016V92.9627C101.576 93.0084 101.124 93.0084 100.716 93.0084C97.3681 93.0084 94.789 91.9133 94.1103 90.2251C93.6126 88.9475 94.1555 87.2137 95.5129 85.4342C97.2323 83.1985 100.128 81.1453 103.386 79.8677C105.829 78.9095 108.318 78.4076 110.58 78.4076C113.928 78.4076 116.507 79.5027 117.186 81.1909C117.684 82.4684 117.141 84.2023 115.784 86.0274ZM123.113 78.9095C121.439 74.6205 116.779 72.0198 110.58 72.0198C107.503 72.0198 104.2 72.6586 101.078 73.8905C96.6894 75.6243 92.8886 78.3164 90.4453 81.5103C87.6852 85.1148 86.8708 89.13 88.183 92.5521C89.8571 96.8411 94.5175 99.4418 100.716 99.4418C101.169 99.4418 101.621 99.4418 102.028 99.3962V105.373H108.725V98.073C109.223 97.8905 109.72 97.7536 110.218 97.5255C114.607 95.7916 118.408 93.0996 120.851 89.9057C123.611 86.3011 124.426 82.2859 123.113 78.9095Z" fill="#9B9FB3"/>
<path d="M102.028 68.5977H108.725V70.6053C108.725 70.6053 106.87 70.6053 105.196 70.9247C103.522 71.244 102.028 72.0197 102.028 72.0197V68.5977Z" fill="#9B9FB3"/>
</svg>
