<svg width="276" height="169" viewBox="0 0 276 169" fill="none" xmlns="http://www.w3.org/2000/svg">
<rect width="276" height="169" fill="white"/>
<path d="M82.5 85C82.5 98.531 71.531 109.5 58 109.5C44.469 109.5 33.5 98.531 33.5 85C33.5 71.469 44.469 60.5 58 60.5C71.531 60.5 82.5 71.469 82.5 85Z" stroke="#9B9FB3"/>
<path fill-rule="evenodd" clip-rule="evenodd" d="M57.5104 83.9479C57.5435 83.0451 57.3406 82.1492 56.9219 81.3487C56.5031 80.5482 55.8829 79.8707 55.1224 79.3829C53.9984 78.6109 50.2764 76.9949 49.6444 74.8889V79.2429C49.5744 80.9979 50.4874 82.6129 51.9624 83.5259C52.4534 83.8069 53.2264 84.2989 54.1394 84.8609C55.6844 85.7729 57.0894 86.6159 57.5794 88.0209V83.9479H57.5094H57.5104ZM57.5104 91.7429C57.5435 90.8401 57.3406 89.9442 56.9219 89.1437C56.5031 88.3432 55.8829 87.6656 55.1224 87.1779C53.9984 86.4049 50.2764 84.7899 49.6444 82.6839V87.0379C49.5744 88.7929 50.4874 90.4079 51.9624 91.3209C52.4534 91.6019 53.2264 92.0939 54.1394 92.6559C55.6844 93.5679 57.0894 94.4109 57.5794 95.8159V91.7429H57.5094H57.5104ZM57.5104 99.6079C57.5435 98.7051 57.3406 97.8092 56.9219 97.0087C56.5031 96.2082 55.8829 95.5306 55.1224 95.0429C53.9984 94.2709 50.2764 92.6559 49.6444 90.5489V94.9029C49.5744 96.6579 50.4874 98.2729 51.9624 99.1869C52.4534 99.4669 53.2264 99.9589 54.1394 100.521C55.6844 101.434 57.0894 102.276 57.5794 103.681V99.6079H57.5094H57.5104ZM58.4924 83.9479C58.4593 83.0451 58.6621 82.1492 59.0809 81.3487C59.4997 80.5482 60.1199 79.8707 60.8804 79.3829C62.0034 78.6109 65.7254 76.9949 66.3574 74.8889V79.2429C66.4274 80.9979 65.5154 82.6129 64.0404 83.5259C63.5484 83.8069 62.7764 84.2989 61.8634 84.8609C60.3184 85.7729 58.9134 86.6159 58.4224 88.0209V83.9479H58.4924ZM58.4934 91.7429C58.4603 90.8401 58.6631 89.9442 59.0819 89.1437C59.5007 88.3432 60.1209 87.6656 60.8814 87.1779C62.0044 86.4049 65.7264 84.7899 66.3584 82.6839V87.0379C66.4284 88.7929 65.5154 90.4079 64.0414 91.3209C63.5494 91.6019 62.7774 92.0939 61.8644 92.6559C60.3894 93.5679 58.9844 94.4109 58.4934 95.8159V91.7429ZM58.4924 99.6079C58.4593 98.7051 58.6621 97.8092 59.0809 97.0087C59.4997 96.2082 60.1199 95.5306 60.8804 95.0429C62.0034 94.2709 65.7254 92.6559 66.3574 90.5489V94.9029C66.4274 96.6579 65.5154 98.2729 64.0404 99.1869C63.5484 99.4669 62.7764 99.9589 61.8634 100.521C60.3184 101.434 58.9134 102.276 58.4224 103.681V99.6079H58.4924ZM58.0004 66.4609C57.0164 70.3239 54.4184 71.7989 54.4184 74.6779C54.4184 77.9079 56.9464 77.6979 57.9994 79.5939C59.0534 77.6979 61.5814 77.9789 61.5814 74.7479C61.5814 71.7989 58.9834 70.3239 57.9994 66.4619L58.0004 66.4609Z" fill="#9B9FB3"/>
<path d="M101.395 82.0008L101.384 74.3008H100.482L97.3136 79.7128L94.1016 74.3008H93.1996V82.0008H94.2556V76.4238L97.0386 81.0658H97.5446L100.328 76.3908L100.339 82.0008H101.395ZM103.616 82.0008H104.584L108.148 77.7548V82.0008H109.204V76.1708H108.247L104.672 80.4168V76.1708H103.616V82.0008ZM111.253 82.0008H112.309V79.5588H115.631V82.0008H116.687V76.1708H115.631V78.6458H112.309V76.1708H111.253V82.0008ZM118.741 82.0008H119.709L123.273 77.7548V82.0008H124.329V76.1708H123.372L119.797 80.4168V76.1708H118.741V82.0008ZM128.919 82.0668C129.964 82.0668 130.833 81.6268 131.295 80.8128L130.492 80.3068C130.118 80.8788 129.546 81.1428 128.908 81.1428C127.764 81.1428 126.906 80.3508 126.906 79.0858C126.906 77.8428 127.764 77.0398 128.908 77.0398C129.546 77.0398 130.118 77.3038 130.492 77.8758L131.295 77.3588C130.833 76.5448 129.964 76.1158 128.919 76.1158C127.126 76.1158 125.839 77.3478 125.839 79.0858C125.839 80.8238 127.126 82.0668 128.919 82.0668ZM136.932 76.1708H131.608V77.0948H133.742V82.0008H134.798V77.0948H136.932V76.1708ZM143.023 79.1188C143.023 77.3258 141.824 76.1158 140.141 76.1158C138.458 76.1158 137.215 77.3588 137.215 79.0858C137.215 80.8238 138.469 82.0668 140.35 82.0668C141.318 82.0668 142.121 81.7368 142.649 81.1208L142.066 80.4388C141.637 80.9118 141.065 81.1428 140.383 81.1428C139.228 81.1428 138.403 80.4608 138.271 79.4378H143.001C143.012 79.3388 143.023 79.2068 143.023 79.1188ZM140.141 77.0068C141.164 77.0068 141.901 77.6998 142.011 78.6788H138.271C138.381 77.6888 139.129 77.0068 140.141 77.0068ZM147.753 76.1158C146.895 76.1158 146.147 76.4458 145.674 77.0948V76.1708H144.662V84.1348H145.718V81.1208C146.202 81.7478 146.928 82.0668 147.753 82.0668C149.458 82.0668 150.701 80.8788 150.701 79.0858C150.701 77.3038 149.458 76.1158 147.753 76.1158ZM147.665 81.1428C146.554 81.1428 145.707 80.3288 145.707 79.0858C145.707 77.8538 146.554 77.0398 147.665 77.0398C148.787 77.0398 149.634 77.8538 149.634 79.0858C149.634 80.3288 148.787 81.1428 147.665 81.1428ZM154.776 82.0668C155.821 82.0668 156.69 81.6268 157.152 80.8128L156.349 80.3068C155.975 80.8788 155.403 81.1428 154.765 81.1428C153.621 81.1428 152.763 80.3508 152.763 79.0858C152.763 77.8428 153.621 77.0398 154.765 77.0398C155.403 77.0398 155.975 77.3038 156.349 77.8758L157.152 77.3588C156.69 76.5448 155.821 76.1158 154.776 76.1158C152.983 76.1158 151.696 77.3478 151.696 79.0858C151.696 80.8238 152.983 82.0668 154.776 82.0668ZM162.789 76.1708H157.465V77.0948H159.599V82.0008H160.655V77.0948H162.789V76.1708ZM167.84 78.9758C168.423 78.7448 168.775 78.2938 168.775 77.6668C168.775 76.7098 167.95 76.1708 166.575 76.1708H163.869V82.0008H166.674C168.225 82.0008 168.973 81.4068 168.973 80.3948C168.973 79.6578 168.61 79.1738 167.84 78.9758ZM164.903 76.9848H166.487C167.29 76.9848 167.719 77.2598 167.719 77.8208C167.719 78.3818 167.29 78.6788 166.487 78.6788H164.903V76.9848ZM166.597 81.1868H164.903V79.4378H166.663C167.532 79.4378 167.917 79.7238 167.917 80.3288C167.917 80.9228 167.466 81.1868 166.597 81.1868ZM173.123 82.0668C174.872 82.0668 176.148 80.8238 176.148 79.0858C176.148 77.3478 174.872 76.1158 173.123 76.1158C171.374 76.1158 170.087 77.3478 170.087 79.0858C170.087 80.8238 171.374 82.0668 173.123 82.0668ZM173.123 81.1428C172.001 81.1428 171.154 80.3288 171.154 79.0858C171.154 77.8428 172.001 77.0398 173.123 77.0398C174.245 77.0398 175.081 77.8428 175.081 79.0858C175.081 80.3288 174.245 81.1428 173.123 81.1428ZM183.168 82.0668C184.213 82.0668 185.082 81.6268 185.544 80.8128L184.741 80.3068C184.367 80.8788 183.795 81.1428 183.157 81.1428C182.013 81.1428 181.155 80.3508 181.155 79.0858C181.155 77.8428 182.013 77.0398 183.157 77.0398C183.795 77.0398 184.367 77.3038 184.741 77.8758L185.544 77.3588C185.082 76.5448 184.213 76.1158 183.168 76.1158C181.375 76.1158 180.088 77.3478 180.088 79.0858C180.088 80.8238 181.375 82.0668 183.168 82.0668ZM192.094 79.1188C192.094 77.3258 190.895 76.1158 189.212 76.1158C187.529 76.1158 186.286 77.3588 186.286 79.0858C186.286 80.8238 187.54 82.0668 189.421 82.0668C190.389 82.0668 191.192 81.7368 191.72 81.1208L191.137 80.4388C190.708 80.9118 190.136 81.1428 189.454 81.1428C188.299 81.1428 187.474 80.4608 187.342 79.4378H192.072C192.083 79.3388 192.094 79.2068 192.094 79.1188ZM189.212 77.0068C190.235 77.0068 190.972 77.6998 191.082 78.6788H187.342C187.452 77.6888 188.2 77.0068 189.212 77.0068ZM194.163 76.1708L194.064 78.3268C193.987 79.7018 193.943 81.1318 192.997 81.1318C192.92 81.1318 192.832 81.1208 192.733 81.0988L192.667 81.9898C192.909 82.0558 193.118 82.0888 193.316 82.0888C194.636 82.0888 194.911 80.4498 195.01 78.3928L195.076 77.0948H197.584V82.0008H198.64V76.1708H194.163ZM203.377 78.1508L201.738 78.1398V76.1708H200.682V82.0008L203.212 82.0118C204.774 82.0228 205.654 81.3188 205.654 80.0538C205.654 78.8548 204.862 78.1618 203.377 78.1508ZM203.124 81.2088L201.738 81.1978V78.9098L203.124 78.9318C204.092 78.9428 204.576 79.2728 204.576 80.0428C204.576 80.8238 204.081 81.2198 203.124 81.2088ZM209.55 82.0668C210.595 82.0668 211.464 81.6268 211.926 80.8128L211.123 80.3068C210.749 80.8788 210.177 81.1428 209.539 81.1428C208.395 81.1428 207.537 80.3508 207.537 79.0858C207.537 77.8428 208.395 77.0398 209.539 77.0398C210.177 77.0398 210.749 77.3038 211.123 77.8758L211.926 77.3588C211.464 76.5448 210.595 76.1158 209.55 76.1158C207.757 76.1158 206.47 77.3478 206.47 79.0858C206.47 80.8238 207.757 82.0668 209.55 82.0668ZM217.518 82.0008H218.761L216.396 78.9758L218.607 76.1708H217.474L215.582 78.6348H214.35V76.1708H213.294V82.0008H214.35V79.5368H215.56L217.518 82.0008ZM222.171 82.0668C223.92 82.0668 225.196 80.8238 225.196 79.0858C225.196 77.3478 223.92 76.1158 222.171 76.1158C220.422 76.1158 219.135 77.3478 219.135 79.0858C219.135 80.8238 220.422 82.0668 222.171 82.0668ZM222.171 81.1428C221.049 81.1428 220.202 80.3288 220.202 79.0858C220.202 77.8428 221.049 77.0398 222.171 77.0398C223.293 77.0398 224.129 77.8428 224.129 79.0858C224.129 80.3288 223.293 81.1428 222.171 81.1428ZM231.011 76.1708H226.721V82.0008H227.777V77.0948H231.011V76.1708ZM234.332 82.0668C236.081 82.0668 237.357 80.8238 237.357 79.0858C237.357 77.3478 236.081 76.1158 234.332 76.1158C232.583 76.1158 231.296 77.3478 231.296 79.0858C231.296 80.8238 232.583 82.0668 234.332 82.0668ZM234.332 81.1428C233.21 81.1428 232.363 80.3288 232.363 79.0858C232.363 77.8428 233.21 77.0398 234.332 77.0398C235.454 77.0398 236.29 77.8428 236.29 79.0858C236.29 80.3288 235.454 81.1428 234.332 81.1428ZM97.8636 96.0008L95.5426 93.0198L97.7426 90.1708H96.5876L94.9926 92.2718L93.3866 90.1708H92.2096L94.3986 93.0198L92.0996 96.0008H93.2766L94.9816 93.7678L96.6646 96.0008H97.8636ZM101.279 96.0668C103.028 96.0668 104.304 94.8238 104.304 93.0858C104.304 91.3478 103.028 90.1158 101.279 90.1158C99.5286 90.1158 98.2426 91.3478 98.2426 93.0858C98.2426 94.8238 99.5296 96.0668 101.279 96.0668ZM101.279 95.1428C100.157 95.1428 99.3086 94.3288 99.3086 93.0858C99.3086 91.8428 100.157 91.0398 101.279 91.0398C102.401 91.0398 103.237 91.8428 103.237 93.0858C103.237 94.3288 102.401 95.1428 101.279 95.1428ZM108.921 92.9648C109.559 92.7338 109.977 92.2608 109.977 91.6778C109.977 90.7318 108.932 90.0938 107.513 90.0938C106.765 90.0938 106.039 90.2478 105.28 90.6328L105.566 91.4468C106.204 91.1498 106.809 90.9958 107.403 90.9958C108.294 90.9958 108.888 91.3038 108.888 91.8318C108.888 92.3268 108.393 92.6128 107.612 92.6128H106.622V93.3718H107.689C108.547 93.3718 109.053 93.6798 109.053 94.2188C109.053 94.8128 108.404 95.1758 107.414 95.1758C106.699 95.1758 105.929 94.9778 105.368 94.6148L105.049 95.4178C105.698 95.8358 106.556 96.0778 107.425 96.0778C108.976 96.0778 110.142 95.3628 110.142 94.3068C110.142 93.6358 109.702 93.1628 108.921 92.9648ZM113.871 90.1708C112.309 90.1708 111.308 90.8638 111.308 92.2168C111.308 93.1408 111.803 93.7458 112.672 94.0098L111.253 96.0008H112.386L113.662 94.1528H115.477V96.0008H116.423V90.1708H113.871ZM112.386 92.2498C112.386 91.4358 112.936 91.0948 113.904 91.0948H115.477V93.3938H113.86C112.881 93.3938 112.386 93.0308 112.386 92.2498ZM121.211 89.4118C122.278 89.4118 122.927 88.8838 122.949 87.8938H122.212C122.201 88.4438 121.805 88.7958 121.2 88.7958C120.606 88.7958 120.21 88.4438 120.199 87.8938H119.484C119.495 88.8838 120.144 89.4118 121.211 89.4118ZM118.483 96.0008H119.451L123.015 91.7548V96.0008H124.071V90.1708H123.114L119.539 94.4168V90.1708H118.483V96.0008ZM128.662 96.0668C129.707 96.0668 130.576 95.6268 131.038 94.8128L130.235 94.3068C129.861 94.8788 129.289 95.1428 128.651 95.1428C127.507 95.1428 126.649 94.3508 126.649 93.0858C126.649 91.8428 127.507 91.0398 128.651 91.0398C129.289 91.0398 129.861 91.3038 130.235 91.8758L131.038 91.3588C130.576 90.5448 129.707 90.1158 128.662 90.1158C126.869 90.1158 125.582 91.3478 125.582 93.0858C125.582 94.8238 126.869 96.0668 128.662 96.0668ZM136.675 90.1708H131.351V91.0948H133.485V96.0008H134.541V91.0948H136.675V90.1708ZM141.725 92.9758C142.308 92.7448 142.66 92.2938 142.66 91.6668C142.66 90.7098 141.835 90.1708 140.46 90.1708H137.754V96.0008H140.559C142.11 96.0008 142.858 95.4068 142.858 94.3948C142.858 93.6578 142.495 93.1738 141.725 92.9758ZM138.788 90.9848H140.372C141.175 90.9848 141.604 91.2598 141.604 91.8208C141.604 92.3818 141.175 92.6788 140.372 92.6788H138.788V90.9848ZM140.482 95.1868H138.788V93.4378H140.548C141.417 93.4378 141.802 93.7238 141.802 94.3288C141.802 94.9228 141.351 95.1868 140.482 95.1868ZM146.59 90.1158C145.655 90.1158 144.786 90.3798 144.181 90.8638L144.621 91.6558C145.072 91.2708 145.776 91.0288 146.469 91.0288C147.514 91.0288 148.031 91.5458 148.031 92.4368V92.6458H146.359C144.621 92.6458 144.016 93.4158 144.016 94.3508C144.016 95.3628 144.852 96.0668 146.172 96.0668C147.085 96.0668 147.734 95.7588 148.086 95.2308V96.0008H149.087V92.4808C149.087 90.8858 148.185 90.1158 146.59 90.1158ZM146.348 95.2528C145.545 95.2528 145.061 94.8898 145.061 94.3068C145.061 93.8118 145.358 93.4048 146.403 93.4048H148.031V94.2188C147.767 94.8898 147.14 95.2528 146.348 95.2528ZM157.122 88.3008H154.119V96.0008H155.219V93.6688H157.122C159.124 93.6688 160.334 92.6568 160.334 90.9848C160.334 89.3128 159.124 88.3008 157.122 88.3008ZM157.089 92.7118H155.219V89.2578H157.089C158.497 89.2578 159.234 89.8848 159.234 90.9848C159.234 92.0848 158.497 92.7118 157.089 92.7118ZM170.463 92.1398C170.463 90.1158 168.967 88.8948 166.382 88.7958V88.0148H165.359V88.7958C162.763 88.8948 161.267 90.1048 161.267 92.1398C161.267 94.1638 162.763 95.3738 165.359 95.4728V96.2868H166.382V95.4728C168.978 95.3848 170.463 94.1748 170.463 92.1398ZM166.382 94.6148V89.6648C168.307 89.7748 169.407 90.6328 169.407 92.1288C169.407 93.6468 168.34 94.4938 166.382 94.6148ZM162.334 92.1398C162.334 90.6218 163.401 89.7858 165.359 89.6648V94.6148C163.445 94.4938 162.334 93.6578 162.334 92.1398Z" fill="#9B9FB3"/>
</svg>
