<svg width="533" height="217" viewBox="0 0 533 217" fill="none" xmlns="http://www.w3.org/2000/svg">
<g opacity="0.2">
<mask id="path-1-inside-1_2959_995" fill="white">
<path d="M0.382668 63.4114C44.0166 33.1333 99.6097 12.5137 160.132 4.15999C220.654 -4.19371 283.387 0.0937022 340.397 16.4801C397.408 32.8664 446.135 60.6158 480.418 96.219C514.701 131.822 533 173.68 533 216.5L221 216.5L0.382668 63.4114Z"/>
</mask>
<path d="M0.382668 63.4114C44.0166 33.1333 99.6097 12.5137 160.132 4.15999C220.654 -4.19371 283.387 0.0937022 340.397 16.4801C397.408 32.8664 446.135 60.6158 480.418 96.219C514.701 131.822 533 173.68 533 216.5L221 216.5L0.382668 63.4114Z" stroke="#2051A3" stroke-width="2" stroke-dasharray="7 7" mask="url(#path-1-inside-1_2959_995)"/>
</g>
</svg>
