<svg width="276" height="169" viewBox="0 0 276 169" fill="none" xmlns="http://www.w3.org/2000/svg">
<rect width="276" height="169" fill="white"/>
<g clip-path="url(#clip0_2824_41431)">
<path d="M93.7101 65.7204C92.5354 65.6823 91.3821 66.0403 90.4353 66.7367C89.4886 67.4332 88.8035 68.4277 88.4901 69.5604C88.0541 70.9708 88.0541 72.48 88.4901 73.8904C88.7253 74.8615 89.2501 75.7381 89.9947 76.4042C90.7394 77.0703 91.6689 77.4945 92.6601 77.6204C93.6565 77.835 94.6952 77.7302 95.6286 77.3209C96.5621 76.9116 97.3429 76.2186 97.8601 75.3404C98.4996 74.3374 98.8639 73.1839 98.9166 71.9956C98.9692 70.8073 98.7084 69.626 98.1601 68.5704C97.7864 67.7014 97.1608 66.9643 96.364 66.4545C95.5671 65.9447 94.6357 65.6855 93.6901 65.7104L93.7101 65.7204ZM93.6101 83.3004C90.5709 83.3966 87.6108 82.3227 85.3401 80.3004C84.1319 79.1965 83.184 77.838 82.5649 76.323C81.9458 74.8081 81.6709 73.1745 81.7601 71.5404C81.7048 68.7845 82.6578 66.1032 84.4401 64.0004C86.0834 62.0885 88.3247 60.7881 90.8001 60.3104C93.8578 59.5934 97.0736 60.0615 99.8001 61.6204C101.448 62.5294 102.824 63.8607 103.787 65.4775C104.75 67.0944 105.266 68.9385 105.28 70.8204C105.46 72.5109 105.259 74.2204 104.692 75.8229C104.124 77.4255 103.204 78.8803 102 80.0804C100.888 81.1453 99.5752 81.979 98.1385 82.5334C96.7018 83.0878 95.1695 83.3519 93.6301 83.3104L93.6101 83.3004ZM171.66 73.7504C170.65 73.0827 169.494 72.6677 168.29 72.5404C167.679 72.4162 167.049 72.4177 166.439 72.545C165.829 72.6722 165.251 72.9224 164.74 73.2804C164.264 73.6413 163.912 74.1413 163.733 74.711C163.554 75.2807 163.556 75.8921 163.74 76.4604C163.917 76.9604 164.237 77.3975 164.66 77.7175C165.083 78.0374 165.591 78.2262 166.12 78.2604C167.201 78.3666 168.292 78.1981 169.29 77.7704C170.101 77.5037 170.788 76.9503 171.22 76.214C171.653 75.4777 171.802 74.6089 171.64 73.7704L171.66 73.7504ZM171.76 69.5804C171.808 68.9446 171.808 68.3062 171.76 67.6704C171.669 67.1799 171.441 66.7254 171.1 66.3605C170.76 65.9956 170.323 65.7354 169.84 65.6104C166.547 64.6557 163.02 64.9257 159.91 66.3704L159.08 61.8004C160.367 61.1734 161.738 60.7356 163.15 60.5004C166.075 59.9055 169.094 59.9498 172 60.6304C175.09 61.4104 177.25 63.2004 177.85 66.4804C177.973 67.3145 178.023 68.1576 178 69.0004V77.2904C178.11 78.9904 178.26 79.1604 180 79.4204V82.9304C178.291 83.5073 176.431 83.4505 174.76 82.7704C174.316 82.5454 173.934 82.2156 173.647 81.8096C173.359 81.4036 173.175 80.9336 173.11 80.4404C173.11 80.2404 173.06 80.0304 173.02 79.7304C170.91 82.7304 167.89 83.5104 164.57 83.3204C160.9 83.0004 158 80.5304 157.52 77.5804C156.66 72.7904 159.08 69.2104 163.91 68.4904C167 68.0004 167.84 68.2204 171.79 69.5704L171.76 69.5804ZM143.39 73.8504L139.99 74.0604V82.7804H133.62V60.7104H139.89V68.8704C141.268 68.995 142.657 68.8903 144 68.5604C144.787 68.3273 145.501 67.8973 146.075 67.3111C146.649 66.7248 147.064 66.0018 147.28 65.2104C147.69 63.7504 147.89 62.2104 148.2 60.6604H154C154.13 65.2104 153.22 69.2204 148.87 71.7204C149.04 72.0404 149.18 72.3204 149.33 72.5804C151.12 75.5804 152.91 78.5804 154.69 81.5304C154.897 81.945 155.078 82.3726 155.23 82.8104H148.53L143.38 73.8604L143.39 73.8504ZM122.38 60.6804H128.58V82.8204H122.32V75.7204C121.17 75.9804 120.11 76.3004 119.03 76.4404C117.661 76.7069 116.252 76.6788 114.895 76.3581C113.538 76.0374 112.265 75.4314 111.16 74.5804C109.466 73.1351 108.345 71.1308 108 68.9304C107.46 66.2204 107.79 63.4704 107.7 60.6804H114.17V61.6804C114.17 63.4704 114.17 65.2704 114.26 67.0504C114.276 67.5876 114.397 68.1163 114.618 68.6062C114.839 69.0961 115.155 69.5374 115.547 69.9046C115.939 70.2719 116.401 70.5578 116.904 70.7458C117.407 70.9339 117.943 71.0204 118.48 71.0004C119.874 71.0454 121.245 70.6308 122.38 69.8204V60.6804ZM73.7501 82.7304H67.5301V66.3304H61.0001V60.7004H80.2101V66.2704H73.7501V82.7304ZM64.0001 106.31C63.0801 106.31 62.5301 105.65 62.5201 104.47C62.685 104.226 62.9048 104.024 63.1617 103.88C63.4187 103.736 63.7058 103.654 64.0001 103.64C64.1708 103.629 64.342 103.654 64.5024 103.713C64.6628 103.773 64.8087 103.865 64.9306 103.985C65.0525 104.105 65.1476 104.25 65.2096 104.409C65.2715 104.569 65.299 104.74 65.2901 104.91C65.3009 105.088 65.2758 105.266 65.2162 105.433C65.1566 105.601 65.0638 105.754 64.9433 105.885C64.8228 106.016 64.6772 106.121 64.5151 106.194C64.353 106.267 64.1779 106.307 64.0001 106.31V106.31ZM64.4501 102.31C64.0672 102.298 63.6869 102.376 63.3395 102.538C62.9922 102.699 62.6876 102.94 62.4501 103.24C62.4571 102.784 62.644 102.349 62.9701 102.03C63.1683 101.825 63.4112 101.667 63.6801 101.57C63.98 101.449 64.2916 101.358 64.6101 101.3L65.1301 101.19L65.7001 101.09L66.2801 100.99V99.6104C65.4903 99.7278 64.7111 99.9084 63.9501 100.15C63.377 100.333 62.8368 100.607 62.3501 100.96C61.8808 101.32 61.5108 101.794 61.2746 102.336C61.0385 102.878 60.944 103.472 61.0001 104.06C60.9533 104.991 61.2288 105.909 61.7801 106.66C62.0449 106.991 62.3841 107.253 62.77 107.427C63.1559 107.601 63.5774 107.681 64.0001 107.66C64.3692 107.668 64.736 107.601 65.0793 107.466C65.4226 107.33 65.7356 107.128 66.0001 106.87C66.2677 106.612 66.4787 106.301 66.6198 105.956C66.761 105.612 66.8292 105.242 66.8201 104.87C66.8523 104.531 66.8119 104.189 66.7015 103.866C66.5912 103.544 66.4134 103.249 66.1801 103C65.9486 102.781 65.675 102.612 65.3759 102.502C65.0768 102.392 64.7584 102.344 64.4401 102.36L64.4501 102.31ZM71.0001 105.86C70.8538 106.047 70.6647 106.195 70.4488 106.293C70.2329 106.39 69.9966 106.434 69.7601 106.42C69.1901 106.42 68.7601 106.19 68.7601 105.71C68.7601 105.23 69.2001 105 69.8501 105C70.2537 104.99 70.6511 105.101 70.9901 105.32L71.0001 105.86ZM72.9201 106.28C72.6701 106.28 72.5401 106.14 72.5401 105.86V104C72.5535 103.699 72.4952 103.398 72.37 103.124C72.2449 102.849 72.0564 102.608 71.8201 102.42C71.2785 102.018 70.6139 101.817 69.9401 101.85C69.2476 101.832 68.5611 101.983 67.9401 102.29V103.6C68.4381 103.3 69.0085 103.141 69.5901 103.14C70.5901 103.14 71.0401 103.48 71.0401 104.14V104.3C70.5303 104.066 69.97 103.963 69.4101 104C68.8672 103.987 68.3343 104.148 67.8901 104.46C67.6791 104.612 67.5098 104.814 67.3979 105.048C67.286 105.282 67.2352 105.541 67.2501 105.8C67.249 106.056 67.3013 106.308 67.4037 106.542C67.5062 106.776 67.6564 106.986 67.8447 107.158C68.0331 107.331 68.2554 107.462 68.4975 107.543C68.7395 107.624 68.9959 107.654 69.2501 107.63C69.5983 107.642 69.9451 107.582 70.2687 107.452C70.5923 107.323 70.8856 107.129 71.1301 106.88C71.2362 107.113 71.4134 107.306 71.6362 107.432C71.859 107.558 72.116 107.61 72.3701 107.58C72.6647 107.599 72.9569 107.518 73.2001 107.35V106.21C73.1102 106.256 73.0109 106.28 72.9101 106.28H72.9201ZM75.5501 107.48V105.33H77.8001V107.48H79.3401V102.01H77.8001V104.03H75.5501V102.01H74.0001V107.48H75.5501ZM82.1001 107.48V105.12L84.2601 107.48H86.2501L83.5001 104.47L85.8801 102.01H83.9801L82.1001 104V102.01H80.5501V107.48H82.1001ZM91.3701 106.18C91.7135 105.26 91.8765 104.282 91.8501 103.3H93.5601V106.18H91.3701ZM90.5701 108.86V107.47H94.5101V108.86H96.0001V106.18H95.1001V102H90.5001V103.06C90.5594 104.137 90.3316 105.21 89.8401 106.17H89.1401V108.85L90.5701 108.86ZM100.62 103.3V107.47H102.17V102H97.4401V103.61C97.4598 104.242 97.3993 104.874 97.2601 105.49C97.1401 105.98 96.9101 106.19 96.5501 106.19C96.4442 106.209 96.336 106.209 96.2301 106.19V107.45C96.4131 107.528 96.6116 107.562 96.8101 107.55C97.2518 107.556 97.6807 107.402 98.0185 107.118C98.3563 106.833 98.5805 106.437 98.6501 106C98.8151 105.374 98.8991 104.728 98.9001 104.08V103.31L100.62 103.3ZM105.68 104.55C105.16 104.55 104.86 104.31 104.86 103.88C104.86 103.45 105.17 103.21 105.68 103.21H106.82V104.55H105.68ZM104.63 107.48L105.89 105.67H106.82V107.48H108.36V102H105.43C103.99 102 103.28 102.76 103.28 103.78C103.252 104.131 103.344 104.481 103.54 104.774C103.736 105.066 104.025 105.283 104.36 105.39L102.89 107.47L104.63 107.48ZM113.93 107.48V103.3H116.11V107.48H117.65V102.01H112.38V107.48H113.93V107.48ZM121.77 103.21C121.968 103.204 122.165 103.24 122.348 103.316C122.53 103.392 122.695 103.506 122.83 103.65C123.097 103.951 123.245 104.339 123.245 104.74C123.245 105.142 123.097 105.53 122.83 105.83C122.695 105.975 122.53 106.089 122.348 106.165C122.165 106.241 121.968 106.277 121.77 106.27C121.491 106.271 121.218 106.196 120.978 106.054C120.739 105.911 120.542 105.706 120.41 105.46V104C120.542 103.754 120.738 103.547 120.977 103.403C121.217 103.259 121.491 103.182 121.77 103.18V103.21ZM122.21 101.83C121.867 101.809 121.524 101.872 121.21 102.013C120.896 102.154 120.622 102.37 120.41 102.64V102H118.87V109.66H120.42V106.81C120.634 107.079 120.909 107.292 121.222 107.433C121.535 107.574 121.877 107.638 122.22 107.62C122.569 107.629 122.915 107.56 123.233 107.419C123.551 107.277 123.834 107.065 124.06 106.8C124.54 106.245 124.799 105.534 124.79 104.8C124.805 104.066 124.545 103.352 124.06 102.8C123.846 102.511 123.567 102.275 123.246 102.112C122.925 101.949 122.57 101.863 122.21 101.86V101.83ZM126.8 104.18C126.823 103.879 126.96 103.597 127.183 103.393C127.405 103.189 127.698 103.077 128 103.08C128.148 103.075 128.296 103.099 128.435 103.152C128.574 103.205 128.7 103.285 128.807 103.388C128.915 103.49 129 103.613 129.059 103.749C129.118 103.885 129.149 104.032 129.15 104.18H126.8ZM128.3 107.62C129.036 107.665 129.766 107.468 130.38 107.06V105.82C129.849 106.132 129.246 106.298 128.63 106.3C127.63 106.3 126.96 105.91 126.8 105.16H130.72V104.75C130.729 104.021 130.477 103.311 130.01 102.75C129.779 102.474 129.487 102.255 129.158 102.109C128.829 101.963 128.47 101.895 128.11 101.91C127.728 101.895 127.346 101.961 126.991 102.104C126.636 102.247 126.315 102.464 126.05 102.74C125.534 103.277 125.25 103.996 125.26 104.74C125.246 105.132 125.318 105.521 125.47 105.882C125.622 106.243 125.851 106.567 126.14 106.83C126.732 107.361 127.505 107.644 128.3 107.62V107.62ZM133.35 106.18C133.694 105.26 133.856 104.282 133.83 103.3H135.54V106.18H133.35ZM132.55 108.86V107.47H136.5V108.86H138V106.18H137.1V102H132.5V103.06C132.559 104.137 132.332 105.21 131.84 106.17H131.14V108.85L132.55 108.86ZM140.26 107.48V103.3H142.44V107.48H143.99V102.01H138.72V107.48H140.26V107.48ZM148.11 103.21C148.308 103.204 148.505 103.24 148.688 103.316C148.87 103.392 149.035 103.506 149.17 103.65C149.437 103.951 149.585 104.339 149.585 104.74C149.585 105.142 149.437 105.53 149.17 105.83C149.035 105.975 148.87 106.089 148.688 106.165C148.505 106.241 148.308 106.277 148.11 106.27C147.831 106.271 147.558 106.196 147.318 106.054C147.079 105.911 146.882 105.706 146.75 105.46V104C146.882 103.754 147.078 103.547 147.317 103.403C147.557 103.259 147.831 103.182 148.11 103.18V103.21ZM148.55 101.83C148.207 101.809 147.864 101.872 147.55 102.013C147.237 102.154 146.962 102.37 146.75 102.64V102H145.2V109.66H146.75V106.81C146.964 107.079 147.239 107.292 147.552 107.433C147.865 107.574 148.207 107.638 148.55 107.62C148.899 107.629 149.245 107.56 149.563 107.419C149.881 107.277 150.164 107.065 150.39 106.8C150.87 106.245 151.129 105.534 151.12 104.8C151.135 104.066 150.875 103.352 150.39 102.8C150.177 102.512 149.9 102.277 149.581 102.114C149.261 101.951 148.909 101.864 148.55 101.86V101.83ZM153.41 107.48L155.89 104.25V107.48H157.41V102.01H155.96L153.49 105.23V102.01H151.96V107.48H153.41ZM160.17 107.48V105.33H162.42V107.48H163.96V102.01H162.42V104.03H160.17V102.01H158.63V107.48H160.17ZM166.62 107.48L169.1 104.25V107.48H170.62V102.01H169.18L166.7 105.23V102.01H165.18V107.48H166.62ZM173.3 107.48V104.1L174.64 105.8H175.26L176.61 104.1V107.48H178.07V102.01H176.55L174.95 104.05L173.36 102.01H171.84V107.48H173.3V107.48ZM182.57 105.86C182.424 106.047 182.235 106.195 182.019 106.293C181.803 106.39 181.567 106.434 181.33 106.42C180.76 106.42 180.33 106.19 180.33 105.71C180.33 105.23 180.75 105 181.4 105C181.804 104.99 182.201 105.101 182.54 105.32L182.57 105.86ZM184.49 106.28C184.24 106.28 184.11 106.14 184.11 105.86V104C184.123 103.699 184.065 103.398 183.94 103.124C183.815 102.849 183.626 102.608 183.39 102.42C182.848 102.018 182.184 101.817 181.51 101.85C180.818 101.832 180.131 101.983 179.51 102.29V103.6C180.008 103.3 180.579 103.141 181.16 103.14C182.16 103.14 182.61 103.48 182.61 104.14V104.3C182.106 104.069 181.553 103.966 181 104C180.457 103.987 179.924 104.148 179.48 104.46C179.269 104.612 179.1 104.814 178.988 105.048C178.876 105.282 178.825 105.541 178.84 105.8C178.839 106.056 178.891 106.308 178.994 106.542C179.096 106.776 179.246 106.986 179.435 107.158C179.623 107.331 179.845 107.462 180.087 107.543C180.33 107.624 180.586 107.654 180.84 107.63C181.188 107.642 181.535 107.582 181.859 107.452C182.182 107.323 182.476 107.129 182.72 106.88C182.826 107.113 183.003 107.306 183.226 107.432C183.449 107.558 183.706 107.61 183.96 107.58C184.255 107.599 184.547 107.518 184.79 107.35V106.21C184.697 106.257 184.594 106.281 184.49 106.28V106.28ZM188.25 107.48V103.3H189.98V102.01H185V103.3H186.7V107.48H188.25ZM191.77 104.18C191.793 103.87 191.937 103.581 192.171 103.375C192.404 103.17 192.709 103.064 193.02 103.08C193.168 103.075 193.316 103.099 193.455 103.152C193.594 103.205 193.72 103.285 193.827 103.388C193.935 103.49 194.02 103.613 194.079 103.749C194.138 103.885 194.169 104.032 194.17 104.18H191.77ZM193.27 107.62C194.006 107.665 194.736 107.468 195.35 107.06V105.82C194.819 106.132 194.216 106.298 193.6 106.3C192.6 106.3 191.93 105.91 191.77 105.16H195.69V104.75C195.699 104.021 195.447 103.311 194.98 102.75C194.749 102.474 194.457 102.255 194.128 102.109C193.799 101.963 193.44 101.895 193.08 101.91C192.698 101.895 192.316 101.961 191.961 102.104C191.606 102.247 191.285 102.464 191.02 102.74C190.504 103.277 190.22 103.996 190.23 104.74C190.216 105.132 190.288 105.521 190.44 105.882C190.592 106.243 190.821 106.567 191.11 106.83C191.702 107.361 192.475 107.644 193.27 107.62V107.62ZM200.45 103.3V107.47H202V102H197.28V103.61C197.3 104.242 197.239 104.874 197.1 105.49C196.98 105.98 196.75 106.19 196.39 106.19C196.284 106.209 196.176 106.209 196.07 106.19V107.45C196.253 107.528 196.452 107.562 196.65 107.55C197.092 107.556 197.521 107.402 197.859 107.118C198.196 106.833 198.421 106.437 198.49 106C198.655 105.374 198.739 104.728 198.74 104.08V103.31L200.45 103.3ZM204.39 104.18C204.413 103.87 204.557 103.581 204.791 103.375C205.024 103.17 205.329 103.064 205.64 103.08C205.788 103.075 205.936 103.099 206.075 103.152C206.214 103.205 206.34 103.285 206.447 103.388C206.555 103.49 206.64 103.613 206.699 103.749C206.758 103.885 206.789 104.032 206.79 104.18H204.39ZM205.89 107.62C206.626 107.665 207.356 107.468 207.97 107.06V105.82C207.439 106.132 206.836 106.298 206.22 106.3C205.22 106.3 204.55 105.91 204.39 105.16H208.31V104.75C208.319 104.021 208.067 103.311 207.6 102.75C207.369 102.474 207.077 102.255 206.748 102.109C206.419 101.963 206.06 101.895 205.7 101.91C205.318 101.895 204.936 101.961 204.581 102.104C204.226 102.247 203.905 102.464 203.64 102.74C203.124 103.277 202.84 103.996 202.85 104.74C202.836 105.132 202.908 105.521 203.06 105.882C203.212 106.243 203.441 106.567 203.73 106.83C204.322 107.361 205.095 107.644 205.89 107.62V107.62ZM211.91 101.4C212.424 101.42 212.925 101.241 213.31 100.9C213.497 100.726 213.645 100.513 213.743 100.277C213.841 100.041 213.888 99.7862 213.88 99.5304H212.71C212.71 99.7452 212.625 99.9513 212.473 100.103C212.321 100.255 212.115 100.34 211.9 100.34C211.685 100.34 211.479 100.255 211.327 100.103C211.175 99.9513 211.09 99.7452 211.09 99.5304H209.93C209.925 99.7886 209.974 100.045 210.075 100.283C210.175 100.521 210.324 100.735 210.513 100.911C210.702 101.088 210.925 101.223 211.17 101.307C211.414 101.391 211.673 101.423 211.93 101.4H211.91ZM210.66 107.47L213.14 104.25V107.47H214.66V102H213.21L210.73 105.22V102H209.21V107.47H210.66Z" fill="#9B9FB3"/>
</g>
<defs>
<clipPath id="clip0_2824_41431">
<rect width="153.64" height="49.67" fill="white" transform="translate(61 60)"/>
</clipPath>
</defs>
</svg>
